<?xml version="1.0" standalone="no"?>
<!DOCTYPE svg PUBLIC "-//W3C//DTD SVG 20010904//EN"
 "http://www.w3.org/TR/2001/REC-SVG-20010904/DTD/svg10.dtd">
<svg version="1.0" xmlns="http://www.w3.org/2000/svg"
 width="500.000000pt" height="500.000000pt" viewBox="0 0 500.000000 500.000000"
 preserveAspectRatio="xMidYMid meet">
<metadata>
Created by potrace 1.16, written by Peter Selinger 2001-2019
</metadata>
<g transform="translate(0.000000,500.000000) scale(0.100000,-0.100000)"
fill="#000000" stroke="none">
<path d="M0 2500 l0 -2500 2500 0 2500 0 0 2500 0 2500 -2500 0 -2500 0 0
-2500z m1475 870 c62 -30 725 -700 755 -763 30 -63 30 -139 0 -198 -28 -55
-710 -745 -757 -765 -67 -29 -168 -9 -215 43 -25 28 -48 88 -48 125 1 68 33
109 329 403 l291 290 -295 295 c-192 193 -299 308 -310 332 -65 157 98 312
250 238z m2474 -1395 c19 -11 48 -37 65 -58 28 -35 31 -46 31 -106 0 -58 -4
-74 -29 -109 -16 -23 -46 -50 -70 -62 -41 -19 -59 -20 -690 -20 -616 0 -649 1
-684 19 -67 35 -112 104 -112 173 1 82 72 165 154 179 22 4 325 6 671 5 611
-1 631 -2 664 -21z"/>
</g>
</svg>
