<?xml version="1.0" encoding="UTF-8"?>
<!DOCTYPE svg PUBLIC "-//W3C//DTD SVG 1.1//EN" "http://www.w3.org/Graphics/SVG/1.1/DTD/svg11.dtd">
<svg xmlns="http://www.w3.org/2000/svg" version="1.1" width="500px" height="500px" style="shape-rendering:geometricPrecision; text-rendering:geometricPrecision; image-rendering:optimizeQuality; fill-rule:evenodd; clip-rule:evenodd" xmlns:xlink="http://www.w3.org/1999/xlink">
<g><path style="opacity:1" fill="#000000" d="M -0.5,-0.5 C 166.167,-0.5 332.833,-0.5 499.5,-0.5C 499.5,166.167 499.5,332.833 499.5,499.5C 332.833,499.5 166.167,499.5 -0.5,499.5C -0.5,332.833 -0.5,166.167 -0.5,-0.5 Z"/></g>
<g><path style="opacity:1" fill="#f4f4f4" d="M 76.5,229.5 C 78.5273,229.338 80.5273,229.505 82.5,230C 88.6667,236.167 94.8333,242.333 101,248.5C 103,251.833 103,255.167 101,258.5C 94.8333,264.667 88.6667,270.833 82.5,277C 77.1529,278.616 74.3196,276.783 74,271.5C 79.3157,265.35 84.8157,259.35 90.5,253.5C 85.515,248.015 80.3484,242.681 75,237.5C 74.1093,234.502 74.6093,231.836 76.5,229.5 Z"/></g>
<g><path style="opacity:1" fill="#f6f6f6" d="M 200.5,241.5 C 200.5,242.5 200.5,243.5 200.5,244.5C 197.833,244.5 195.167,244.5 192.5,244.5C 188.944,239.434 184.278,238.267 178.5,241C 176.91,244.231 177.577,246.897 180.5,249C 187.72,250.291 194.22,253.125 200,257.5C 203.637,270.723 198.471,277.723 184.5,278.5C 178.439,278.698 173.272,276.698 169,272.5C 167.092,269.794 166.259,266.794 166.5,263.5C 169.518,263.335 172.518,263.502 175.5,264C 176.696,268.19 179.529,270.023 184,269.5C 188.222,269.979 191.056,268.312 192.5,264.5C 192.471,262.971 191.804,261.804 190.5,261C 185.178,259.335 179.845,257.669 174.5,256C 168.092,252.677 165.925,247.511 168,240.5C 173.36,232.375 180.86,229.542 190.5,232C 195.648,233.316 198.982,236.483 200.5,241.5 Z"/></g>
<g><path style="opacity:1" fill="#fcfcfc" d="M 208.5,231.5 C 211.5,231.5 214.5,231.5 217.5,231.5C 217.334,237.509 217.501,243.509 218,249.5C 219.857,244.966 223.191,242.966 228,243.5C 233.125,242.895 236.792,244.895 239,249.5C 239.5,258.827 239.666,268.161 239.5,277.5C 236.5,277.5 233.5,277.5 230.5,277.5C 230.666,269.826 230.5,262.159 230,254.5C 226.098,249.196 222.098,249.196 218,254.5C 217.5,262.159 217.334,269.826 217.5,277.5C 214.5,277.5 211.5,277.5 208.5,277.5C 208.5,262.167 208.5,246.833 208.5,231.5 Z"/></g>
<g><path style="opacity:1" fill="#f2f2f2" d="M 258.5,242.5 C 265.792,242.199 271.626,244.866 276,250.5C 276.5,259.494 276.666,268.494 276.5,277.5C 273.5,277.5 270.5,277.5 267.5,277.5C 267.657,276.127 267.49,274.793 267,273.5C 260.333,280.167 253.667,280.167 247,273.5C 244.496,268.354 245.329,263.854 249.5,260C 254.699,258.182 260.033,256.849 265.5,256C 267.494,251.863 266.16,250.03 261.5,250.5C 257.239,252.668 252.572,253.668 247.5,253.5C 247.622,249.853 249.288,247.019 252.5,245C 254.723,244.434 256.723,243.6 258.5,242.5 Z"/></g>
<g><path style="opacity:1" fill="#fafafa" d="M 299.5,242.5 C 302.38,242.033 304.713,242.866 306.5,245C 305.391,247.047 304.724,249.213 304.5,251.5C 300.046,250.617 296.546,251.95 294,255.5C 293.5,262.826 293.334,270.159 293.5,277.5C 290.5,277.5 287.5,277.5 284.5,277.5C 284.5,266.167 284.5,254.833 284.5,243.5C 287.5,243.5 290.5,243.5 293.5,243.5C 293.34,245.199 293.506,246.866 294,248.5C 295.36,245.977 297.193,243.977 299.5,242.5 Z"/></g>
<g><path style="opacity:1" fill="#fcfcfc" d="M 310.5,243.5 C 313.5,243.5 316.5,243.5 319.5,243.5C 319.334,250.508 319.5,257.508 320,264.5C 321.506,269.411 324.673,270.744 329.5,268.5C 330.333,267.5 331.167,266.5 332,265.5C 332.5,258.174 332.666,250.841 332.5,243.5C 335.5,243.5 338.5,243.5 341.5,243.5C 341.5,254.833 341.5,266.167 341.5,277.5C 338.5,277.5 335.5,277.5 332.5,277.5C 332.662,275.473 332.495,273.473 332,271.5C 329.929,275.953 326.429,277.953 321.5,277.5C 317.331,277.849 314.164,276.182 312,272.5C 310.552,262.939 310.052,253.273 310.5,243.5 Z"/></g>
<g><path style="opacity:1" fill="#fafafa" d="M 379.5,254.5 C 376.713,255.477 373.713,255.81 370.5,255.5C 369.207,250.922 366.207,249.422 361.5,251C 356.227,257.263 356.227,263.597 361.5,270C 366.207,271.578 369.207,270.078 370.5,265.5C 373.713,265.19 376.713,265.523 379.5,266.5C 378.945,270.56 376.945,273.727 373.5,276C 354.582,280.419 346.415,272.919 349,253.5C 350.859,248.974 354.026,245.808 358.5,244C 363.589,243.174 368.589,243.508 373.5,245C 376.945,247.273 378.945,250.44 379.5,254.5 Z"/></g>
<g><path style="opacity:1" fill="#f8f8f8" d="M 395.5,243.5 C 413.843,242.177 421.01,250.51 417,268.5C 412.211,276.773 405.045,279.606 395.5,277C 391.749,275.585 388.916,273.085 387,269.5C 382.676,258.177 385.509,249.51 395.5,243.5 Z"/></g>
<g><path style="opacity:1" fill="#8c8c8c" d="M 200.5,241.5 C 201.434,242.568 201.768,243.901 201.5,245.5C 198.287,245.81 195.287,245.477 192.5,244.5C 195.167,244.5 197.833,244.5 200.5,244.5C 200.5,243.5 200.5,242.5 200.5,241.5 Z"/></g>
<g><path style="opacity:1" fill="#070707" d="M 398.5,250.5 C 403.133,249.458 406.299,251.125 408,255.5C 409.472,261.076 408.305,265.909 404.5,270C 399.404,271.58 396.237,269.746 395,264.5C 393.608,259.093 394.774,254.426 398.5,250.5 Z"/></g>
<g><path style="opacity:1" fill="#6a6a6a" d="M 379.5,254.5 C 380.043,254.56 380.376,254.893 380.5,255.5C 377.02,256.806 373.687,256.806 370.5,255.5C 373.713,255.81 376.713,255.477 379.5,254.5 Z"/></g>
<g><path style="opacity:1" fill="#121212" d="M 261.5,262.5 C 263.167,262.5 264.833,262.5 266.5,262.5C 267.037,269.745 263.704,272.578 256.5,271C 254.398,269.267 254.065,267.267 255.5,265C 257.611,264.155 259.611,263.322 261.5,262.5 Z"/></g>
<g><path style="opacity:1" fill="#757475" d="M 370.5,265.5 C 373.687,264.194 377.02,264.194 380.5,265.5C 380.376,266.107 380.043,266.44 379.5,266.5C 376.713,265.523 373.713,265.19 370.5,265.5 Z"/></g>
<g><path style="opacity:1" fill="#efefef" d="M 111.5,267.5 C 124.171,267.333 136.838,267.5 149.5,268C 153.5,271.333 153.5,274.667 149.5,278C 136.833,278.667 124.167,278.667 111.5,278C 107.552,274.422 107.552,270.922 111.5,267.5 Z"/></g>
</svg>
