<svg width="192" height="25" viewBox="0 0 192 25" fill="none" xmlns="http://www.w3.org/2000/svg">
<path d="M10.3828 23.8026H0V0.697647H10.3828C11.9897 0.697647 13.5142 0.984925 14.915 1.60051C16.3159 2.2161 17.5519 3.03688 18.6232 4.06285C19.6944 5.08883 20.5185 6.32 21.1365 7.75637C21.7545 9.15169 22.0429 10.6701 22.0429 12.2296C22.0429 13.8301 21.7545 15.3075 21.1365 16.7439C20.5185 18.1392 19.6944 19.3704 18.6232 20.4374C17.5519 21.4634 16.3159 22.2842 14.915 22.8998C13.5142 23.5154 11.9897 23.8026 10.3828 23.8026ZM9.64121 6.36104H6.09786V18.2213H9.64121C10.4652 18.2213 11.2481 18.0572 11.9897 17.7699C12.7313 17.4826 13.3494 17.0312 13.885 16.4977C14.4206 15.9642 14.8326 15.3486 15.1622 14.6099C15.4506 13.8712 15.6155 13.1325 15.6155 12.3117C15.6155 11.4909 15.4506 10.7112 15.1622 10.0135C14.8326 9.27481 14.4206 8.65922 13.885 8.12572C13.3494 7.59221 12.7313 7.18182 11.9897 6.8535C11.2893 6.52519 10.5064 6.36104 9.64121 6.36104Z" fill="white"/>
<path d="M35.5983 0.902847H30.1185L21.5485 23.7206H28.0996L32.879 9.02858L37.6172 23.7206H44.1683L35.5983 0.902847Z" fill="white"/>
<path d="M61.3492 23.8026L57.3115 16.6618H53.3973L53.4385 23.8026H47.0522V0.697647H58.6711C59.2479 0.697647 59.7836 0.820772 60.3604 1.02597C60.9372 1.23116 61.514 1.51844 62.0497 1.84675C62.5853 2.17506 63.0797 2.58545 63.5329 3.03688C63.9861 3.48831 64.3981 3.93973 64.6866 4.39116C65.0986 4.96571 65.387 5.62234 65.593 6.40208C65.799 7.18183 65.9226 7.87948 65.9226 8.57715C65.9226 9.72624 65.6342 10.7933 65.0986 11.7782C64.563 12.7631 63.8213 13.5839 62.8737 14.2816L68.3123 23.8026H61.3492ZM56.817 5.86857H53.1913V10.8343H56.817C57.1878 10.8343 57.5175 10.7522 57.8471 10.6291C58.1767 10.506 58.4651 10.3418 58.6711 10.0956C58.9183 9.84936 59.0831 9.60312 59.2479 9.31585C59.3715 9.02857 59.4539 8.70026 59.4539 8.33091C59.4539 7.96156 59.3715 7.63325 59.2479 7.34598C59.1243 7.0587 58.9183 6.77143 58.6711 6.56624C58.4239 6.32 58.1355 6.15584 57.8471 6.03272C57.5175 5.95064 57.1878 5.86857 56.817 5.86857Z" fill="white"/>
<path d="M81.2087 11.6551L90.3966 23.8437H82.8567L76.5117 16.0873V23.8437H70.1666V0.738693H76.5117V8.49507L82.8567 0.738693H90.6851L81.2087 11.6551Z" fill="white"/>
<path d="M111.533 24.5413C109.803 24.5413 108.237 24.213 106.754 23.5564C105.27 22.8998 103.993 22.0379 102.881 20.8889C101.768 19.7808 100.903 18.4676 100.285 16.9901C99.667 15.5127 99.3373 13.9533 99.3373 12.2707C99.3373 10.5881 99.667 9.02857 100.285 7.55117C100.903 6.07376 101.809 4.76051 102.881 3.65246C103.993 2.5444 105.27 1.64154 106.754 0.984919C108.237 0.328295 109.844 -1.52588e-05 111.533 -1.52588e-05C113.099 -1.52588e-05 114.582 0.287261 116.024 0.861807C117.466 1.43635 118.785 2.25713 119.979 3.32415L115.2 7.55117C114.046 6.73038 112.81 6.31999 111.574 6.31999C110.75 6.31999 109.967 6.48416 109.226 6.81247C108.525 7.14078 107.907 7.55116 107.372 8.12571C106.836 8.70026 106.465 9.31585 106.136 10.0545C105.847 10.7933 105.682 11.532 105.682 12.3117C105.682 13.1325 105.847 13.9122 106.136 14.6099C106.424 15.3486 106.836 15.9642 107.372 16.4977C107.907 17.0312 108.484 17.4826 109.226 17.8109C109.926 18.1392 110.709 18.3034 111.533 18.3034C112.481 18.3034 113.387 18.0982 114.211 17.6468C115.035 17.1953 115.777 16.5798 116.395 15.8L121.339 19.7808C120.103 21.2992 118.661 22.4483 116.972 23.2691C115.241 24.1309 113.428 24.5413 111.533 24.5413Z" fill="white"/>
<path d="M133.452 24.5413C131.722 24.5413 130.115 24.213 128.632 23.5974C127.149 22.9818 125.83 22.079 124.718 21.012C123.605 19.9039 122.74 18.6317 122.081 17.1133C121.422 15.6359 121.092 14.0353 121.092 12.3527C121.092 10.6701 121.422 9.06962 122.081 7.59221C122.74 6.11481 123.605 4.80156 124.718 3.6935C125.83 2.58545 127.149 1.72363 128.632 1.06701C130.115 0.410384 131.722 0.0820618 133.452 0.0820618C135.142 0.0820618 136.749 0.410384 138.232 1.06701C139.756 1.72363 141.034 2.58545 142.146 3.6935C143.258 4.80156 144.124 6.07377 144.783 7.59221C145.442 9.06962 145.772 10.6701 145.772 12.3527C145.772 14.0353 145.442 15.6359 144.783 17.1133C144.124 18.5907 143.258 19.9039 142.146 21.012C141.034 22.12 139.715 22.9818 138.232 23.5974C136.749 24.213 135.142 24.5413 133.452 24.5413ZM133.452 5.99169C132.587 5.99169 131.763 6.15584 131.022 6.5252C130.28 6.85351 129.621 7.34597 129.085 7.92052C128.549 8.49507 128.137 9.15169 127.808 9.93143C127.519 10.7112 127.355 11.4909 127.355 12.3527C127.355 13.1735 127.519 13.9943 127.808 14.774C128.096 15.5538 128.549 16.2104 129.085 16.785C129.621 17.3595 130.28 17.8109 131.022 18.1803C131.763 18.5086 132.587 18.7138 133.452 18.7138C134.318 18.7138 135.142 18.5496 135.883 18.1803C136.625 17.852 137.284 17.3595 137.82 16.785C138.355 16.2104 138.768 15.5538 139.097 14.774C139.386 13.9943 139.55 13.2146 139.55 12.3527C139.55 11.4909 139.386 10.7112 139.097 9.93143C138.809 9.15169 138.355 8.49507 137.82 7.92052C137.284 7.34597 136.625 6.89455 135.883 6.5252C135.142 6.15584 134.359 5.99169 133.452 5.99169Z" fill="white"/>
<path d="M159.162 23.8026H148.779V0.697647H159.162C160.769 0.697647 162.294 0.984925 163.694 1.60051C165.095 2.2161 166.331 3.03688 167.403 4.06285C168.474 5.08883 169.298 6.32 169.916 7.75637C170.534 9.15169 170.822 10.6701 170.822 12.2296C170.822 13.8301 170.534 15.3075 169.916 16.7439C169.298 18.1392 168.474 19.3704 167.403 20.4374C166.331 21.4634 165.095 22.2842 163.694 22.8998C162.294 23.5154 160.769 23.8026 159.162 23.8026ZM158.462 6.36104H154.918V18.2213H158.462C159.286 18.2213 160.069 18.0572 160.81 17.7699C161.552 17.4826 162.17 17.0312 162.706 16.4977C163.241 15.9642 163.653 15.3486 163.983 14.6099C164.312 13.8712 164.436 13.1325 164.436 12.3117C164.436 11.4909 164.271 10.7112 163.983 10.0135C163.694 9.27481 163.241 8.65922 162.706 8.12572C162.17 7.59221 161.552 7.18182 160.81 6.8535C160.069 6.52519 159.286 6.36104 158.462 6.36104Z" fill="white"/>
<path d="M173.542 0.902847V6.27896H192V0.902847H173.542ZM173.542 9.43897V15.1434H191.052V9.43897H173.542ZM173.542 18.3444V23.7206H192V18.3444H173.542V18.3444Z" fill="white"/>
</svg>
