<svg width="192" height="40" viewBox="0 0 192 40" fill="none" xmlns="http://www.w3.org/2000/svg">
<path d="M10.3667 24.0624H0V0.606632H10.3667C11.9667 0.606632 13.5 0.909944 14.9 1.51656C16.3 2.12317 17.5333 2.96569 18.6 4.01042C19.6667 5.05515 20.5 6.30208 21.1 7.75122C21.7 9.16665 22 10.7169 22 12.3008C22 13.9185 21.7 15.435 21.1 16.8504C20.5 18.2659 19.6667 19.5128 18.6 20.5912C17.5333 21.636 16.3 22.4785 14.9 23.0851C13.5 23.7591 11.9667 24.0624 10.3667 24.0624ZM9.66667 6.33578H6.1V18.367H9.66667C10.5 18.367 11.3 18.1985 12 17.8952C12.7333 17.5919 13.3667 17.1537 13.9 16.6145C14.4333 16.0753 14.8667 15.435 15.1667 14.6936C15.4667 13.9522 15.6333 13.1771 15.6333 12.3682C15.6333 11.5594 15.4667 10.7506 15.1667 10.0429C14.8667 9.30145 14.4333 8.66114 13.9 8.12193C13.3667 7.58271 12.7333 7.1446 12 6.84129C11.2667 6.50428 10.5 6.33578 9.66667 6.33578Z" fill="black"/>
<path d="M35.6 0.808829H30.1333L21.5667 23.9613H28.1L32.8667 9.06554L37.6 23.9613H44.1333L35.6 0.808829Z" fill="black"/>
<path d="M61.3333 24.0624L57.3 16.8167H53.4L53.4333 24.0624H47.0333V0.606632H58.6667C59.2333 0.606632 59.8 0.707743 60.3667 0.909948C60.9333 1.11215 61.5 1.41546 62.0333 1.75247C62.5667 2.08948 63.0667 2.49389 63.5333 2.932C64 3.37011 64.3667 3.84192 64.7 4.28003C65.1 4.85295 65.4 5.56066 65.6 6.33578C65.8 7.1109 65.9 7.85232 65.9 8.56003C65.9 9.73956 65.6333 10.818 65.1 11.829C64.5667 12.84 63.8 13.6826 62.8667 14.3566L68.3 24.0287H61.3333V24.0624ZM56.8333 5.86397H53.2333V10.9191H56.8333C57.2 10.9191 57.5333 10.8517 57.8333 10.7169C58.1667 10.5821 58.4333 10.4136 58.6667 10.1777C58.9 9.94178 59.1 9.67216 59.2333 9.36885C59.3667 9.06555 59.4333 8.72854 59.4333 8.39153C59.4333 8.02082 59.3667 7.71752 59.2333 7.41421C59.1 7.1109 58.9 6.8413 58.6667 6.60539C58.4333 6.36948 58.1333 6.20098 57.8333 6.06617C57.5333 5.93137 57.2 5.86397 56.8333 5.86397Z" fill="black"/>
<path d="M81.2 11.7279L90.3667 24.0961H82.8334L76.4667 16.2101V24.0961H70.1V0.640324H76.4667V8.52632L82.8334 0.640324H90.6667L81.2 11.7279Z" fill="black"/>
<path d="M111.533 24.8038C109.833 24.8038 108.233 24.4668 106.733 23.8265C105.233 23.1862 103.967 22.2763 102.833 21.1304C101.733 19.9846 100.867 18.6703 100.233 17.1874C99.6 15.6709 99.2667 14.087 99.2667 12.4019C99.2667 10.7169 99.6 9.09923 100.233 7.61639C100.867 6.09986 101.733 4.78552 102.833 3.67339C103.933 2.52756 105.233 1.65134 106.733 0.977323C108.2 0.337006 109.8 0 111.533 0C113.1 0 114.567 0.30331 116 0.876224C117.433 1.44914 118.767 2.29166 119.967 3.37009L115.2 7.58269C114.033 6.77387 112.833 6.33576 111.567 6.33576C110.733 6.33576 109.967 6.50427 109.233 6.80758C108.5 7.14458 107.9 7.58269 107.367 8.12191C106.833 8.69482 106.433 9.33513 106.133 10.0766C105.833 10.818 105.7 11.5931 105.7 12.4019C105.7 13.2444 105.833 14.0196 106.133 14.7273C106.433 15.4687 106.833 16.109 107.367 16.6482C107.9 17.1874 108.5 17.6592 109.2 17.9625C109.9 18.2996 110.667 18.4681 111.5 18.4681C112.467 18.4681 113.333 18.2322 114.167 17.794C115 17.3559 115.7 16.7156 116.333 15.9068L121.267 19.9509C120.033 21.4674 118.567 22.6807 116.9 23.4895C115.233 24.3994 113.433 24.8038 111.533 24.8038Z" fill="black"/>
<path d="M133.467 24.8038C131.767 24.8038 130.133 24.4668 128.667 23.8265C127.167 23.1862 125.867 22.31 124.767 21.1978C123.667 20.0857 122.767 18.7714 122.133 17.2548C121.5 15.7383 121.167 14.1206 121.167 12.4356C121.167 10.7169 121.5 9.09922 122.133 7.61638C122.767 6.09985 123.667 4.78551 124.767 3.67338C125.867 2.56125 127.2 1.68503 128.667 1.01102C130.167 0.370699 131.767 0.0336926 133.467 0.0336926C135.167 0.0336926 136.767 0.370699 138.267 1.01102C139.767 1.65133 141.067 2.56125 142.2 3.67338C143.3 4.78551 144.2 6.09985 144.833 7.61638C145.467 9.13292 145.8 10.7506 145.8 12.4356C145.8 14.1543 145.467 15.772 144.833 17.2548C144.2 18.7714 143.3 20.0857 142.2 21.1978C141.1 22.31 139.767 23.1862 138.267 23.8265C136.767 24.4668 135.167 24.8038 133.467 24.8038ZM133.467 5.96504C132.6 5.96504 131.767 6.13354 131.033 6.50425C130.3 6.84126 129.633 7.31307 129.1 7.91969C128.567 8.4926 128.133 9.20032 127.833 9.97544C127.533 10.7506 127.367 11.5594 127.367 12.4356C127.367 13.2781 127.533 14.0869 127.833 14.8958C128.133 15.7046 128.567 16.3786 129.1 16.9515C129.633 17.5244 130.267 17.9962 131.033 18.367C131.767 18.704 132.6 18.9062 133.467 18.9062C134.333 18.9062 135.167 18.7377 135.9 18.367C136.633 18.0299 137.3 17.5581 137.833 16.9515C138.367 16.3786 138.8 15.6709 139.1 14.8958C139.4 14.1207 139.567 13.2781 139.567 12.4356C139.567 11.5594 139.4 10.7506 139.1 9.97544C138.8 9.20032 138.367 8.5263 137.833 7.91969C137.3 7.34678 136.667 6.87496 135.9 6.50425C135.133 6.16724 134.333 5.96504 133.467 5.96504Z" fill="black"/>
<path d="M159.167 24.0624H148.8V0.606632H159.167C160.767 0.606632 162.3 0.909944 163.7 1.51656C165.1 2.12317 166.333 2.96569 167.4 4.01042C168.467 5.05515 169.3 6.30208 169.9 7.75122C170.5 9.16665 170.8 10.7169 170.8 12.3008C170.8 13.9185 170.5 15.435 169.9 16.8504C169.3 18.2659 168.467 19.5128 167.4 20.5912C166.333 21.636 165.1 22.4785 163.7 23.0851C162.267 23.7591 160.767 24.0624 159.167 24.0624ZM158.433 6.33578H154.867V18.367H158.433C159.267 18.367 160.067 18.1985 160.767 17.8952C161.5 17.5919 162.133 17.1537 162.667 16.6145C163.2 16.0753 163.633 15.435 163.933 14.6936C164.233 13.9522 164.4 13.1771 164.4 12.3682C164.4 11.5594 164.233 10.7506 163.933 10.0429C163.633 9.30145 163.2 8.66114 162.667 8.12193C162.133 7.58271 161.5 7.1446 160.767 6.84129C160.067 6.50428 159.267 6.33578 158.433 6.33578Z" fill="black"/>
<path d="M173.533 0.808829V6.26837H192V0.808829H173.533ZM173.533 9.50365V15.3002H191.033V9.50365H173.533ZM173.533 18.5018V23.9613H192V18.5018H173.533Z" fill="black"/>
<path d="M24.8589 34.9071C24.8589 35.7906 24.5489 36.463 23.929 36.9243C23.3091 37.3856 22.4931 37.6162 21.4808 37.6162H18.8325L20.2803 29.4069H22.905C24.4901 29.4069 25.2826 29.9737 25.2826 31.1074C25.2826 31.4514 25.2198 31.7641 25.0943 32.0456C24.9766 32.3192 24.8314 32.5303 24.6588 32.6789C24.4862 32.8274 24.3135 32.9525 24.1409 33.0542C23.9683 33.148 23.8192 33.2105 23.6936 33.2418L23.5171 33.2887L23.5053 33.3356C23.5445 33.3356 23.5916 33.3435 23.6465 33.3591C23.7093 33.3669 23.8192 33.406 23.9761 33.4764C24.133 33.5389 24.2704 33.6249 24.3881 33.7344C24.5058 33.836 24.6117 33.9924 24.7059 34.2035C24.8079 34.4068 24.8589 34.6413 24.8589 34.9071ZM21.9516 32.8783C23.4111 32.8783 24.1409 32.3505 24.1409 31.295C24.1409 30.6774 23.6858 30.3686 22.7756 30.3686H21.2337L20.7864 32.8783H21.9516ZM21.4808 36.6663C22.14 36.6663 22.6696 36.5334 23.0698 36.2675C23.4778 36.0017 23.6819 35.5795 23.6819 35.001C23.6819 34.6022 23.5406 34.309 23.2581 34.1214C22.9756 33.9259 22.5205 33.8282 21.8928 33.8282H20.6216L20.1155 36.6663H21.4808Z" fill="black"/>
<path d="M28.1351 37.7335C27.4995 37.7335 27.0248 37.5967 26.7109 37.323C26.4049 37.0416 26.2519 36.6624 26.2519 36.1854C26.2519 36.0603 26.2676 35.8883 26.299 35.6694L26.9581 31.9166H27.9939L27.3465 35.5287C27.3151 35.7163 27.2994 35.8571 27.2994 35.9509C27.2994 36.5138 27.6526 36.7953 28.3588 36.7953C28.6883 36.7953 28.9983 36.7366 29.2886 36.6194C29.5789 36.5021 29.7869 36.3887 29.9124 36.2793L30.1125 36.1033L30.854 31.9166H31.9016L31.1718 36.0213C31.1483 36.1385 31.1365 36.2402 31.1365 36.3262C31.1365 36.5764 31.3092 36.7366 31.6544 36.807L31.1365 37.7335C30.9247 37.7257 30.7324 37.667 30.5598 37.5576C30.3872 37.4481 30.2655 37.3426 30.1949 37.2409L30.1008 37.0885C30.038 37.1354 29.9477 37.194 29.83 37.2644C29.7123 37.3347 29.4809 37.4325 29.1356 37.5576C28.7982 37.6748 28.4647 37.7335 28.1351 37.7335Z" fill="black"/>
<path d="M34.7164 31.9166L33.9631 36.1503C33.9474 36.2284 33.9396 36.2832 33.9396 36.3144C33.9396 36.4474 33.9788 36.549 34.0573 36.6194C34.1436 36.6897 34.2809 36.7484 34.4692 36.7953L33.9514 37.7335C33.6139 37.6944 33.3432 37.5849 33.1392 37.4051C32.9352 37.2175 32.8332 36.9712 32.8332 36.6663C32.8332 36.6194 32.841 36.5412 32.8567 36.4317L33.6571 31.9166H34.7164ZM35.2814 29.7235L35.0813 30.8611C34.8694 30.8455 34.6693 30.8064 34.481 30.7438C34.3005 30.6735 34.1515 30.5953 34.0337 30.5093C33.916 30.4233 33.814 30.3412 33.7277 30.263C33.6414 30.1848 33.5826 30.1184 33.5512 30.0636L33.4923 29.9816L33.9514 28.9378C34.0612 29.0785 34.1515 29.188 34.2221 29.2662C34.3005 29.3444 34.4339 29.4343 34.6223 29.5359C34.8184 29.6375 35.0381 29.7001 35.2814 29.7235Z" fill="black"/>
<path d="M37.1529 29.4069H38.2122L37.0116 36.1385C36.9959 36.2324 36.9881 36.2949 36.9881 36.3262C36.9881 36.5685 37.1568 36.7288 37.4942 36.807L36.9763 37.7335C36.631 37.6944 36.3603 37.581 36.1642 37.3934C35.9758 37.2057 35.8817 36.9595 35.8817 36.6545C35.8817 36.6076 35.8895 36.5216 35.9052 36.3965L37.1529 29.4069Z" fill="black"/>
<path d="M42.8597 36.0916L43.3541 33.3591C43.3227 33.3122 43.2756 33.2535 43.2129 33.1832C43.1579 33.1128 43.0206 33.019 42.8009 32.9017C42.5812 32.7844 42.3419 32.7258 42.0829 32.7258C41.4866 32.7258 40.9687 32.9643 40.5292 33.4412C40.0977 33.9181 39.8819 34.5201 39.8819 35.2472C39.8819 35.7242 40.0035 36.1033 40.2468 36.3848C40.4979 36.6663 40.8157 36.807 41.2001 36.807C41.514 36.807 41.8083 36.7484 42.0829 36.6311C42.3575 36.5138 42.5576 36.3965 42.6832 36.2793L42.8597 36.0916ZM45.0843 29.4069L43.8838 36.162C43.8759 36.2011 43.872 36.2558 43.872 36.3262C43.872 36.5764 44.0407 36.7366 44.3781 36.807L43.872 37.7335C43.6366 37.7178 43.4326 37.6592 43.2599 37.5576C43.0951 37.4481 42.9892 37.3426 42.9421 37.2409L42.8597 37.0885C42.8048 37.1354 42.7263 37.194 42.6243 37.2644C42.5223 37.3347 42.3105 37.4286 41.9887 37.5458C41.6749 37.6631 41.361 37.7218 41.0471 37.7218C40.3958 37.7218 39.8623 37.5107 39.4464 37.0885C39.0384 36.6585 38.8343 36.0603 38.8343 35.2941C38.8343 34.2856 39.1639 33.4529 39.823 32.7962C40.4822 32.1394 41.2551 31.8111 42.1418 31.8111C42.4242 31.8111 42.6793 31.8541 42.9068 31.9401C43.1422 32.0182 43.3031 32.0964 43.3894 32.1746L43.5306 32.2919L44.0485 29.4069H45.0843Z" fill="black"/>
<path d="M52.2851 36.0916L52.7794 33.3591C52.7716 33.3435 52.7559 33.3239 52.7324 33.3005C52.7167 33.2692 52.6735 33.2184 52.6029 33.148C52.5323 33.0698 52.4538 33.0034 52.3675 32.9486C52.2812 32.8939 52.1596 32.8431 52.0026 32.7962C51.8535 32.7493 51.6887 32.7258 51.5083 32.7258C50.9119 32.7258 50.394 32.9643 49.9546 33.4412C49.523 33.9181 49.3072 34.5201 49.3072 35.2472C49.3072 35.7242 49.4289 36.1033 49.6721 36.3848C49.9232 36.6663 50.241 36.807 50.6255 36.807C50.9394 36.807 51.2336 36.7484 51.5083 36.6311C51.7829 36.5138 51.983 36.3965 52.1085 36.2793L52.2851 36.0916ZM54.0742 31.9166L53.3091 36.162C53.3013 36.2011 53.2973 36.2558 53.2973 36.3262C53.2973 36.5764 53.466 36.7366 53.8035 36.807L53.2973 37.7335C53.0619 37.7178 52.8579 37.6592 52.6853 37.5576C52.5205 37.4481 52.4146 37.3426 52.3675 37.2409L52.2851 37.0885C52.2223 37.1354 52.136 37.194 52.0262 37.2644C51.9163 37.3347 51.7005 37.4286 51.3788 37.5458C51.0649 37.6631 50.7628 37.7218 50.4725 37.7218C49.8212 37.7218 49.2876 37.5107 48.8717 37.0885C48.4637 36.6585 48.2597 36.0603 48.2597 35.2941C48.2597 34.2856 48.5893 33.4529 49.2484 32.7962C49.9075 32.1394 50.6804 31.8111 51.5671 31.8111C51.8653 31.8111 52.1321 31.8541 52.3675 31.9401C52.6029 32.0261 52.7677 32.1121 52.8618 32.1981L52.9913 32.3271L53.109 31.9166H54.0742Z" fill="black"/>
<path d="M58.8448 31.8111C59.3548 31.8111 59.755 31.9479 60.0453 32.2215C60.3357 32.4952 60.4808 32.8704 60.4808 33.3474C60.4808 33.5819 60.4612 33.8282 60.422 34.0862L60.0571 36.1385C60.0414 36.2324 60.0336 36.2949 60.0336 36.3262C60.0336 36.5685 60.2023 36.7288 60.5397 36.807L60.0218 37.7335C59.6765 37.6944 59.4097 37.5849 59.2214 37.4051C59.0331 37.2175 58.9389 36.9712 58.9389 36.6663C58.9389 36.6115 58.9468 36.5216 58.9625 36.3965L59.3627 34.1448C59.3862 33.9885 59.398 33.8204 59.398 33.6406C59.398 33.0776 59.0998 32.7962 58.5034 32.7962C58.2053 32.7962 57.8953 32.8744 57.5736 33.0307C57.2519 33.1793 57.0086 33.3317 56.8438 33.4881L56.5849 33.7109L55.8905 37.6162H54.8429L55.8551 31.9166H56.8321L56.7497 32.6554C56.8203 32.5929 56.9223 32.5147 57.0557 32.4209C57.1891 32.3271 57.4363 32.202 57.7972 32.0456C58.166 31.8892 58.5152 31.8111 58.8448 31.8111Z" fill="black"/>
<path d="M65.8484 36.0916L66.3428 33.3591C66.3114 33.3122 66.2643 33.2535 66.2015 33.1832C66.1466 33.1128 66.0093 33.019 65.7896 32.9017C65.5699 32.7844 65.3305 32.7258 65.0716 32.7258C64.4752 32.7258 63.9573 32.9643 63.5179 33.4412C63.0863 33.9181 62.8706 34.5201 62.8706 35.2472C62.8706 35.7242 62.9922 36.1033 63.2354 36.3848C63.4865 36.6663 63.8043 36.807 64.1888 36.807C64.5027 36.807 64.7969 36.7484 65.0716 36.6311C65.3462 36.5138 65.5463 36.3965 65.6719 36.2793L65.8484 36.0916ZM68.073 29.4069L66.8724 36.162C66.8646 36.2011 66.8607 36.2558 66.8607 36.3262C66.8607 36.5764 67.0294 36.7366 67.3668 36.807L66.8607 37.7335C66.6253 37.7178 66.4212 37.6592 66.2486 37.5576C66.0838 37.4481 65.9779 37.3426 65.9308 37.2409L65.8484 37.0885C65.7935 37.1354 65.715 37.194 65.613 37.2644C65.511 37.3347 65.2991 37.4286 64.9774 37.5458C64.6635 37.6631 64.3497 37.7218 64.0358 37.7218C63.3845 37.7218 62.8509 37.5107 62.4351 37.0885C62.027 36.6585 61.823 36.0603 61.823 35.2941C61.823 34.2856 62.1526 33.4529 62.8117 32.7962C63.4708 32.1394 64.2437 31.8111 65.1304 31.8111C65.4129 31.8111 65.6679 31.8541 65.8955 31.9401C66.1309 32.0182 66.2918 32.0964 66.3781 32.1746L66.5193 32.2919L67.0372 29.4069H68.073Z" fill="black"/>
<path d="M70.9423 37.1119L71.5308 36.2793C71.5779 36.3184 71.6407 36.3692 71.7192 36.4317C71.7976 36.4864 71.9624 36.5607 72.2135 36.6545C72.4725 36.7484 72.7275 36.7953 72.9786 36.7953C73.4102 36.7953 73.7554 36.7093 74.0144 36.5373C74.2812 36.3653 74.4145 36.1542 74.4145 35.904C74.4145 35.7007 74.3165 35.5404 74.1203 35.4231C73.932 35.2981 73.7005 35.2003 73.4258 35.13C73.1591 35.0596 72.8883 34.9775 72.6137 34.8837C72.3391 34.7899 72.1037 34.6335 71.9075 34.4146C71.7192 34.1878 71.625 33.8986 71.625 33.5467C71.625 33.0464 71.8526 32.632 72.3077 32.3036C72.7706 31.9752 73.3395 31.8111 74.0144 31.8111C74.4224 31.8111 74.7873 31.8541 75.109 31.9401C75.4307 32.0182 75.6465 32.0964 75.7564 32.1746L75.9329 32.2919L75.2973 33.0776C74.9285 32.8509 74.4891 32.7375 73.9791 32.7375C73.6181 32.7375 73.316 32.8001 73.0727 32.9252C72.8373 33.0503 72.7196 33.2418 72.7196 33.4998C72.7196 33.664 72.8138 33.7969 73.0021 33.8986C73.1983 34.0002 73.4298 34.0862 73.6966 34.1566C73.9712 34.2191 74.2458 34.3012 74.5205 34.4028C74.7951 34.4967 75.0266 34.6609 75.2149 34.8954C75.4111 35.13 75.5092 35.4271 75.5092 35.7867C75.5092 36.3105 75.2855 36.7679 74.8383 37.1588C74.391 37.5419 73.7554 37.7335 72.9315 37.7335C72.5549 37.7335 72.2018 37.6827 71.8722 37.581C71.5426 37.4794 71.3072 37.3738 71.166 37.2644L70.9423 37.1119Z" fill="black"/>
<path d="M77.9118 29.4069H78.9593L78.3944 32.5851C78.465 32.5303 78.5631 32.46 78.6886 32.374C78.822 32.288 79.0692 32.1746 79.4301 32.0339C79.7989 31.8931 80.1442 31.8228 80.4659 31.8228C80.9995 31.8228 81.4036 31.9635 81.6782 32.245C81.9529 32.5186 82.0902 32.9213 82.0902 33.4529C82.0902 33.664 82.0666 33.8947 82.0196 34.1448L81.6665 36.1385C81.6508 36.2324 81.6429 36.2988 81.6429 36.3379C81.6429 36.4552 81.6782 36.549 81.7489 36.6194C81.8273 36.6819 81.9529 36.7366 82.1255 36.7835L81.5958 37.7218C81.2741 37.6827 81.0191 37.5732 80.8308 37.3934C80.6425 37.2136 80.5483 36.9751 80.5483 36.678C80.5483 36.6311 80.5561 36.5451 80.5718 36.42L80.972 34.1683C80.9956 34.0119 81.0073 33.8712 81.0073 33.7461C81.0073 33.1363 80.6974 32.8314 80.0775 32.8314C79.8264 32.8314 79.5439 32.9017 79.23 33.0425C78.9162 33.1832 78.6651 33.3239 78.4767 33.4646L78.1943 33.6757L77.4998 37.6162H76.4523L77.9118 29.4069Z" fill="black"/>
<path d="M87.4233 36.0916L87.9176 33.3591C87.9098 33.3435 87.8941 33.3239 87.8705 33.3005C87.8549 33.2692 87.8117 33.2184 87.7411 33.148C87.6705 33.0698 87.592 33.0034 87.5057 32.9486C87.4194 32.8939 87.2977 32.8431 87.1408 32.7962C86.9917 32.7493 86.8269 32.7258 86.6465 32.7258C86.0501 32.7258 85.5322 32.9643 85.0928 33.4412C84.6612 33.9181 84.4454 34.5201 84.4454 35.2472C84.4454 35.7242 84.567 36.1033 84.8103 36.3848C85.0614 36.6663 85.3792 36.807 85.7637 36.807C86.0776 36.807 86.3718 36.7484 86.6465 36.6311C86.9211 36.5138 87.1212 36.3965 87.2467 36.2793L87.4233 36.0916ZM89.2124 31.9166L88.4473 36.162C88.4394 36.2011 88.4355 36.2558 88.4355 36.3262C88.4355 36.5764 88.6042 36.7366 88.9416 36.807L88.4355 37.7335C88.2001 37.7178 87.9961 37.6592 87.8235 37.5576C87.6587 37.4481 87.5528 37.3426 87.5057 37.2409L87.4233 37.0885C87.3605 37.1354 87.2742 37.194 87.1643 37.2644C87.0545 37.3347 86.8387 37.4286 86.517 37.5458C86.2031 37.6631 85.901 37.7218 85.6107 37.7218C84.9594 37.7218 84.4258 37.5107 84.0099 37.0885C83.6019 36.6585 83.3979 36.0603 83.3979 35.2941C83.3979 34.2856 83.7274 33.4529 84.3866 32.7962C85.0457 32.1394 85.8186 31.8111 86.7053 31.8111C87.0035 31.8111 87.2703 31.8541 87.5057 31.9401C87.7411 32.0261 87.9059 32.1121 88 32.1981L88.1295 32.3271L88.2472 31.9166H89.2124Z" fill="black"/>
<path d="M95.007 32.503L94.2772 33.3122C94.2458 33.2731 94.1988 33.2223 94.136 33.1597C94.0732 33.0894 93.9516 33.0034 93.7711 32.9017C93.5906 32.7923 93.4141 32.7375 93.2414 32.7375C92.802 32.7375 92.4411 32.8783 92.1586 33.1597C91.8761 33.4412 91.7113 33.7109 91.6642 33.9689L91.0286 37.6162H89.9811L90.9816 31.9166H91.9585L91.8879 32.5147C91.9428 32.46 92.0173 32.3935 92.1115 32.3153C92.2057 32.2372 92.394 32.1316 92.6765 31.9987C92.9668 31.8658 93.2454 31.7993 93.5122 31.7993C93.724 31.7993 93.9163 31.8228 94.0889 31.8697C94.2694 31.9166 94.4145 31.9752 94.5244 32.0456C94.6343 32.116 94.7245 32.1863 94.7951 32.2567C94.8736 32.3271 94.9285 32.3857 94.9599 32.4326L95.007 32.503Z" fill="black"/>
<path d="M100.005 35.1651H95.7564C95.7564 35.6733 95.8937 36.0721 96.1684 36.3614C96.443 36.6506 96.8353 36.7953 97.3454 36.7953C97.62 36.7953 97.9025 36.7484 98.1928 36.6545C98.4832 36.5607 98.7068 36.4669 98.8637 36.3731L99.0874 36.2441L99.3816 37.1119C99.311 37.1588 99.209 37.2175 99.0756 37.2878C98.9422 37.3582 98.6833 37.452 98.2988 37.5693C97.9221 37.6788 97.5572 37.7335 97.2041 37.7335C96.4508 37.7335 95.8427 37.5028 95.3798 37.0416C94.9168 36.5803 94.6853 35.9939 94.6853 35.2824C94.6853 34.3051 95.0149 33.4803 95.674 32.8079C96.341 32.1355 97.1453 31.7993 98.0869 31.7993C98.7303 31.7993 99.2404 31.9909 99.617 32.374C100.002 32.7571 100.194 33.2809 100.194 33.9455C100.194 34.0862 100.178 34.2543 100.147 34.4498C100.123 34.6452 100.096 34.8094 100.064 34.9423C100.033 35.0752 100.013 35.1495 100.005 35.1651ZM95.9447 34.2269H99.158C99.1737 34.1018 99.1815 34.008 99.1815 33.9455C99.1815 33.5936 99.0717 33.3044 98.852 33.0776C98.6323 32.8509 98.3066 32.7375 97.875 32.7375C97.4827 32.7375 97.0982 32.8822 96.7216 33.1715C96.3449 33.4607 96.086 33.8126 95.9447 34.2269Z" fill="black"/>
<path d="M105.828 37.7335C105.287 37.7335 104.828 37.5693 104.451 37.2409C104.074 36.9047 103.886 36.4513 103.886 35.8805C103.886 35.6851 103.902 35.4896 103.933 35.2941L104.522 31.9166H105.557L104.969 35.2355C104.937 35.4231 104.922 35.5834 104.922 35.7163C104.922 36.0682 105.016 36.3379 105.204 36.5255C105.4 36.7054 105.671 36.7953 106.016 36.7953C106.37 36.7953 106.699 36.6545 107.005 36.3731C107.319 36.0916 107.519 35.7085 107.605 35.2238L108.182 31.9166H109.218L108.641 35.2238C108.61 35.3723 108.594 35.5209 108.594 35.6694C108.594 36.0291 108.688 36.3066 108.877 36.5021C109.065 36.6975 109.32 36.7953 109.642 36.7953C109.979 36.7953 110.269 36.6975 110.513 36.5021C110.756 36.3066 110.94 36.0486 111.066 35.7281C111.191 35.4075 111.282 35.087 111.337 34.7664C111.399 34.4459 111.431 34.1253 111.431 33.8047C111.431 33.148 111.227 32.7102 110.819 32.4913L111.537 31.7055C112.18 31.987 112.502 32.6515 112.502 33.6992C112.502 34.9658 112.219 35.9548 111.654 36.6663C111.089 37.3777 110.36 37.7335 109.465 37.7335C109.23 37.7335 109.01 37.6983 108.806 37.6279C108.602 37.5654 108.437 37.4911 108.312 37.4051C108.194 37.3113 108.092 37.2175 108.006 37.1236C107.927 37.0298 107.872 36.9516 107.841 36.8891L107.782 36.7835C107.727 36.8539 107.649 36.9438 107.547 37.0533C107.452 37.1549 107.237 37.2957 106.899 37.4755C106.562 37.6475 106.205 37.7335 105.828 37.7335Z" fill="black"/>
<path d="M115.407 31.9166L114.653 36.1503C114.638 36.2284 114.63 36.2832 114.63 36.3144C114.63 36.4474 114.669 36.549 114.748 36.6194C114.834 36.6897 114.971 36.7484 115.159 36.7953L114.642 37.7335C114.304 37.6944 114.033 37.5849 113.829 37.4051C113.625 37.2175 113.523 36.9712 113.523 36.6663C113.523 36.6194 113.531 36.5412 113.547 36.4317L114.347 31.9166H115.407ZM115.972 29.7235L115.772 30.8611C115.56 30.8455 115.36 30.8064 115.171 30.7438C114.991 30.6735 114.842 30.5953 114.724 30.5093C114.606 30.4233 114.504 30.3412 114.418 30.263C114.332 30.1848 114.273 30.1184 114.241 30.0636L114.183 29.9816L114.642 28.9378C114.751 29.0785 114.842 29.188 114.912 29.2662C114.991 29.3444 115.124 29.4343 115.312 29.5359C115.509 29.6375 115.728 29.7001 115.972 29.7235Z" fill="black"/>
<path d="M120.35 31.9166L120.185 32.8665H118.738L118.208 35.8336C118.184 35.9665 118.173 36.0799 118.173 36.1737C118.173 36.3848 118.224 36.5412 118.326 36.6428C118.436 36.7366 118.62 36.7835 118.879 36.7835L119.573 36.7132L119.244 37.6631C118.938 37.71 118.663 37.7335 118.42 37.7335C117.533 37.7335 117.09 37.3152 117.09 36.4786C117.09 36.3223 117.109 36.1346 117.149 35.9157L117.69 32.8665H116.807L116.972 31.9166H117.855L118.02 30.9549L119.161 30.4741L118.902 31.9166H120.35Z" fill="black"/>
<path d="M121.993 29.4069H123.04L122.475 32.5851C122.546 32.5303 122.644 32.46 122.769 32.374C122.903 32.288 123.15 32.1746 123.511 32.0339C123.88 31.8931 124.225 31.8228 124.547 31.8228C125.08 31.8228 125.484 31.9635 125.759 32.245C126.034 32.5186 126.171 32.9213 126.171 33.4529C126.171 33.664 126.147 33.8947 126.1 34.1448L125.747 36.1385C125.732 36.2324 125.724 36.2988 125.724 36.3379C125.724 36.4552 125.759 36.549 125.83 36.6194C125.908 36.6819 126.034 36.7366 126.206 36.7835L125.677 37.7218C125.355 37.6827 125.1 37.5732 124.912 37.3934C124.723 37.2136 124.629 36.9751 124.629 36.678C124.629 36.6311 124.637 36.5451 124.653 36.42L125.053 34.1683C125.076 34.0119 125.088 33.8712 125.088 33.7461C125.088 33.1363 124.778 32.8314 124.158 32.8314C123.907 32.8314 123.625 32.9017 123.311 33.0425C122.997 33.1832 122.746 33.3239 122.558 33.4646L122.275 33.6757L121.581 37.6162H120.533L121.993 29.4069Z" fill="black"/>
<path d="M129.571 39.9617L130.995 31.9166H131.972L131.913 32.4443C131.968 32.3974 132.042 32.3388 132.136 32.2684C132.238 32.1981 132.442 32.1042 132.748 31.987C133.055 31.8697 133.357 31.8111 133.655 31.8111C134.275 31.8111 134.785 32.03 135.185 32.4678C135.585 32.8978 135.785 33.4881 135.785 34.2387C135.785 35.2394 135.463 36.0721 134.82 36.7366C134.177 37.3934 133.419 37.7218 132.548 37.7218C132.266 37.7218 132.003 37.6788 131.76 37.5928C131.524 37.4989 131.356 37.4051 131.254 37.3113L131.112 37.1823L130.618 39.9617H129.571ZM131.783 33.4177L131.289 36.2206C131.313 36.2675 131.352 36.3223 131.407 36.3848C131.469 36.4474 131.607 36.5334 131.819 36.6428C132.038 36.7523 132.282 36.807 132.548 36.807C133.153 36.807 133.667 36.5646 134.09 36.0799C134.514 35.5873 134.726 35.001 134.726 34.3208C134.726 33.8204 134.604 33.4295 134.361 33.148C134.126 32.8665 133.796 32.7258 133.372 32.7258C133.082 32.7258 132.803 32.7844 132.537 32.9017C132.278 33.0112 132.085 33.1245 131.96 33.2418L131.783 33.4177Z" fill="black"/>
<path d="M140.746 36.0916L141.24 33.3591C141.232 33.3435 141.216 33.3239 141.193 33.3005C141.177 33.2692 141.134 33.2184 141.063 33.148C140.993 33.0698 140.914 33.0034 140.828 32.9486C140.742 32.8939 140.62 32.8431 140.463 32.7962C140.314 32.7493 140.149 32.7258 139.969 32.7258C139.372 32.7258 138.854 32.9643 138.415 33.4412C137.983 33.9181 137.768 34.5201 137.768 35.2472C137.768 35.7242 137.889 36.1033 138.133 36.3848C138.384 36.6663 138.701 36.807 139.086 36.807C139.4 36.807 139.694 36.7484 139.969 36.6311C140.243 36.5138 140.443 36.3965 140.569 36.2793L140.746 36.0916ZM142.535 31.9166L141.77 36.162C141.762 36.2011 141.758 36.2558 141.758 36.3262C141.758 36.5764 141.926 36.7366 142.264 36.807L141.758 37.7335C141.522 37.7178 141.318 37.6592 141.146 37.5576C140.981 37.4481 140.875 37.3426 140.828 37.2409L140.746 37.0885C140.683 37.1354 140.596 37.194 140.487 37.2644C140.377 37.3347 140.161 37.4286 139.839 37.5458C139.525 37.6631 139.223 37.7218 138.933 37.7218C138.282 37.7218 137.748 37.5107 137.332 37.0885C136.924 36.6585 136.72 36.0603 136.72 35.2941C136.72 34.2856 137.05 33.4529 137.709 32.7962C138.368 32.1394 139.141 31.8111 140.028 31.8111C140.326 31.8111 140.593 31.8541 140.828 31.9401C141.063 32.0261 141.228 32.1121 141.322 32.1981L141.452 32.3271L141.569 31.9166H142.535Z" fill="black"/>
<path d="M143.127 37.1119L143.715 36.2793C143.762 36.3184 143.825 36.3692 143.904 36.4317C143.982 36.4864 144.147 36.5607 144.398 36.6545C144.657 36.7484 144.912 36.7953 145.163 36.7953C145.595 36.7953 145.94 36.7093 146.199 36.5373C146.466 36.3653 146.599 36.1542 146.599 35.904C146.599 35.7007 146.501 35.5404 146.305 35.4231C146.116 35.2981 145.885 35.2003 145.61 35.13C145.343 35.0596 145.073 34.9775 144.798 34.8837C144.524 34.7899 144.288 34.6335 144.092 34.4146C143.904 34.1878 143.809 33.8986 143.809 33.5467C143.809 33.0464 144.037 32.632 144.492 32.3036C144.955 31.9752 145.524 31.8111 146.199 31.8111C146.607 31.8111 146.972 31.8541 147.293 31.9401C147.615 32.0182 147.831 32.0964 147.941 32.1746L148.117 32.2919L147.482 33.0776C147.113 32.8509 146.674 32.7375 146.163 32.7375C145.803 32.7375 145.5 32.8001 145.257 32.9252C145.022 33.0503 144.904 33.2418 144.904 33.4998C144.904 33.664 144.998 33.7969 145.187 33.8986C145.383 34.0002 145.614 34.0862 145.881 34.1566C146.156 34.2191 146.43 34.3012 146.705 34.4028C146.98 34.4967 147.211 34.6609 147.399 34.8954C147.596 35.13 147.694 35.4271 147.694 35.7867C147.694 36.3105 147.47 36.7679 147.023 37.1588C146.575 37.5419 145.94 37.7335 145.116 37.7335C144.739 37.7335 144.386 37.6827 144.057 37.581C143.727 37.4794 143.492 37.3738 143.35 37.2644L143.127 37.1119Z" fill="black"/>
<path d="M148.46 37.1119L149.049 36.2793C149.096 36.3184 149.159 36.3692 149.237 36.4317C149.315 36.4864 149.48 36.5607 149.731 36.6545C149.99 36.7484 150.245 36.7953 150.496 36.7953C150.928 36.7953 151.273 36.7093 151.532 36.5373C151.799 36.3653 151.932 36.1542 151.932 35.904C151.932 35.7007 151.834 35.5404 151.638 35.4231C151.45 35.2981 151.218 35.2003 150.944 35.13C150.677 35.0596 150.406 34.9775 150.132 34.8837C149.857 34.7899 149.621 34.6335 149.425 34.4146C149.237 34.1878 149.143 33.8986 149.143 33.5467C149.143 33.0464 149.37 32.632 149.825 32.3036C150.288 31.9752 150.857 31.8111 151.532 31.8111C151.94 31.8111 152.305 31.8541 152.627 31.9401C152.949 32.0182 153.164 32.0964 153.274 32.1746L153.451 32.2919L152.815 33.0776C152.446 32.8509 152.007 32.7375 151.497 32.7375C151.136 32.7375 150.834 32.8001 150.591 32.9252C150.355 33.0503 150.237 33.2418 150.237 33.4998C150.237 33.664 150.332 33.7969 150.52 33.8986C150.716 34.0002 150.948 34.0862 151.214 34.1566C151.489 34.2191 151.764 34.3012 152.038 34.4028C152.313 34.4967 152.544 34.6609 152.733 34.8954C152.929 35.13 153.027 35.4271 153.027 35.7867C153.027 36.3105 152.803 36.7679 152.356 37.1588C151.909 37.5419 151.273 37.7335 150.449 37.7335C150.073 37.7335 149.72 37.6827 149.39 37.581C149.06 37.4794 148.825 37.3738 148.684 37.2644L148.46 37.1119Z" fill="black"/>
<path d="M155.936 31.9166L155.182 36.1503C155.167 36.2284 155.159 36.2832 155.159 36.3144C155.159 36.4474 155.198 36.549 155.277 36.6194C155.363 36.6897 155.5 36.7484 155.689 36.7953L155.171 37.7335C154.833 37.6944 154.563 37.5849 154.358 37.4051C154.154 37.2175 154.052 36.9712 154.052 36.6663C154.052 36.6194 154.06 36.5412 154.076 36.4317L154.876 31.9166H155.936ZM156.501 29.7235L156.301 30.8611C156.089 30.8455 155.889 30.8064 155.7 30.7438C155.52 30.6735 155.371 30.5953 155.253 30.5093C155.135 30.4233 155.033 30.3412 154.947 30.263C154.861 30.1848 154.802 30.1184 154.77 30.0636L154.712 29.9816L155.171 28.9378C155.28 29.0785 155.371 29.188 155.441 29.2662C155.52 29.3444 155.653 29.4343 155.842 29.5359C156.038 29.6375 156.257 29.7001 156.501 29.7235Z" fill="black"/>
<path d="M160.455 31.7993C161.217 31.7993 161.829 32.03 162.292 32.4913C162.762 32.9525 162.998 33.535 162.998 34.2387C162.998 35.2238 162.668 36.0525 162.009 36.7249C161.35 37.3973 160.55 37.7335 159.608 37.7335C158.831 37.7335 158.207 37.5028 157.737 37.0416C157.274 36.5803 157.042 35.9978 157.042 35.2941C157.042 34.309 157.372 33.4803 158.031 32.8079C158.69 32.1355 159.498 31.7993 160.455 31.7993ZM159.667 36.7953C160.295 36.7953 160.828 36.5568 161.268 36.0799C161.707 35.603 161.927 35.0244 161.927 34.3442C161.927 33.8673 161.785 33.4803 161.503 33.1832C161.228 32.8861 160.852 32.7375 160.373 32.7375C159.745 32.7375 159.212 32.976 158.772 33.4529C158.333 33.9298 158.113 34.5084 158.113 35.1886C158.113 35.6655 158.25 36.0525 158.525 36.3496C158.808 36.6467 159.188 36.7953 159.667 36.7953Z" fill="black"/>
<path d="M167.8 31.8111C168.31 31.8111 168.71 31.9479 169 32.2215C169.29 32.4952 169.436 32.8704 169.436 33.3474C169.436 33.5819 169.416 33.8282 169.377 34.0862L169.012 36.1385C168.996 36.2324 168.988 36.2949 168.988 36.3262C168.988 36.5685 169.157 36.7288 169.494 36.807L168.977 37.7335C168.631 37.6944 168.365 37.5849 168.176 37.4051C167.988 37.2175 167.894 36.9712 167.894 36.6663C167.894 36.6115 167.902 36.5216 167.917 36.3965L168.317 34.1448C168.341 33.9885 168.353 33.8204 168.353 33.6406C168.353 33.0776 168.055 32.7962 167.458 32.7962C167.16 32.7962 166.85 32.8744 166.528 33.0307C166.207 33.1793 165.963 33.3317 165.799 33.4881L165.54 33.7109L164.845 37.6162H163.798L164.81 31.9166H165.787L165.704 32.6554C165.775 32.5929 165.877 32.5147 166.011 32.4209C166.144 32.3271 166.391 32.202 166.752 32.0456C167.121 31.8892 167.47 31.8111 167.8 31.8111Z" fill="black"/>
<path d="M171.366 36.2793H172.708L172.461 37.6162H171.119L171.366 36.2793Z" fill="black"/>
</svg>
