<svg width="104" height="24" viewBox="0 0 104 24" fill="none" xmlns="http://www.w3.org/2000/svg">
<rect width="24" height="24" rx="6" fill="white"/>
<path d="M3.90371 6.80307C3.04618 7.82503 2.62974 9.1458 2.74602 10.4748C2.86229 11.8038 3.50175 13.0322 4.52371 13.8897C5.54568 14.7473 6.86644 15.1637 8.19545 15.0474C9.52446 14.9311 10.7528 14.2917 11.6104 13.2697L7.75704 10.0364L3.90371 6.80307Z" fill="#060911"/>
<path d="M17.162 6.70392C17.162 8.85136 15.4211 10.5922 13.2737 10.5922C11.1263 10.5922 9.38544 8.85136 9.38544 6.70392C9.38544 4.55649 11.1263 2.81565 13.2737 2.81565C15.4211 2.81565 17.162 4.55649 17.162 6.70392Z" fill="#060911"/>
<rect x="8.71509" y="17.9775" width="12.741" height="3.91892" transform="rotate(-40 8.71509 17.9775)" fill="#060911"/>
<path d="M33.9598 5.05109V18.7089H31.5457V5.05109H33.9598ZM38.8564 12.7069V18.7089H36.4423V8.46553H38.7497V10.2061H38.8697C39.1054 9.63258 39.4811 9.17687 39.9968 8.83899C40.517 8.5011 41.1594 8.33216 41.9241 8.33216C42.631 8.33216 43.2467 8.48332 43.7713 8.78564C44.3004 9.08796 44.7094 9.52588 44.9984 10.0994C45.2918 10.6729 45.4363 11.3687 45.4319 12.1867V18.7089H43.0178V12.5602C43.0178 11.8755 42.8399 11.3398 42.4843 10.953C42.133 10.5662 41.6462 10.3728 41.0238 10.3728C40.6014 10.3728 40.2257 10.4662 39.8967 10.6529C39.5722 10.8352 39.3166 11.0997 39.1298 11.4465C38.9476 11.7933 38.8564 12.2134 38.8564 12.7069ZM51.6872 18.8889C50.8825 18.8889 50.1623 18.6822 49.5265 18.2687C48.8908 17.8553 48.3884 17.2551 48.0194 16.4681C47.6504 15.6812 47.4659 14.7253 47.4659 13.6005C47.4659 12.4624 47.6526 11.5021 48.0261 10.7196C48.404 9.93268 48.913 9.33915 49.5532 8.93902C50.1934 8.53444 50.907 8.33216 51.6939 8.33216C52.2941 8.33216 52.7876 8.43441 53.1744 8.63892C53.5612 8.83899 53.868 9.08129 54.0947 9.36582C54.3214 9.64592 54.4971 9.91045 54.6215 10.1594H54.7216V5.05109H57.1424V18.7089H54.7682V17.095H54.6215C54.4971 17.344 54.317 17.6085 54.0814 17.8886C53.8457 18.1642 53.5345 18.3999 53.1477 18.5955C52.7609 18.7911 52.2741 18.8889 51.6872 18.8889ZM52.3608 16.9083C52.8721 16.9083 53.3078 16.7705 53.6679 16.4948C54.028 16.2147 54.3014 15.8257 54.4882 15.3278C54.6749 14.8298 54.7682 14.2496 54.7682 13.5872C54.7682 12.9248 54.6749 12.349 54.4882 11.86C54.3059 11.3709 54.0347 10.9908 53.6746 10.7196C53.3189 10.4484 52.881 10.3128 52.3608 10.3128C51.8228 10.3128 51.3738 10.4528 51.0137 10.7329C50.6536 11.013 50.3824 11.3998 50.2001 11.8933C50.0178 12.3868 49.9267 12.9514 49.9267 13.5872C49.9267 14.2274 50.0178 14.7987 50.2001 15.3011C50.3868 15.799 50.6602 16.1925 51.0204 16.4815C51.3849 16.766 51.8317 16.9083 52.3608 16.9083ZM64.2497 18.9089C63.2227 18.9089 62.3357 18.6955 61.5888 18.2687C60.8463 17.8375 60.275 17.2284 59.8749 16.4415C59.4748 15.6501 59.2747 14.7187 59.2747 13.6472C59.2747 12.5935 59.4748 11.6688 59.8749 10.873C60.2795 10.0727 60.8441 9.4503 61.5688 9.00571C62.2935 8.55667 63.1449 8.33216 64.123 8.33216C64.7543 8.33216 65.35 8.43441 65.9102 8.63892C66.4748 8.83899 66.9728 9.1502 67.404 9.57256C67.8397 9.99492 68.1821 10.5329 68.431 11.1864C68.68 11.8355 68.8045 12.6091 68.8045 13.5072V14.2474H60.4084V12.6202H66.4904C66.4859 12.1578 66.3859 11.7466 66.1903 11.3865C65.9947 11.0219 65.7213 10.7352 65.37 10.5262C65.0233 10.3172 64.6187 10.2128 64.1563 10.2128C63.6628 10.2128 63.2293 10.3328 62.8559 10.5729C62.4824 10.8085 62.1912 11.1197 61.9823 11.5065C61.7778 11.8889 61.6733 12.309 61.6688 12.7669V14.1874C61.6688 14.7831 61.7778 15.2944 61.9956 15.7212C62.2134 16.1436 62.518 16.4681 62.9092 16.6949C63.3005 16.9172 63.7584 17.0283 64.283 17.0283C64.6342 17.0283 64.9521 16.9794 65.2367 16.8816C65.5212 16.7793 65.7679 16.6304 65.9769 16.4348C66.1859 16.2392 66.3437 15.9969 66.4504 15.7079L68.7044 15.9613C68.5622 16.5571 68.291 17.0772 67.8909 17.5218C67.4952 17.962 66.9883 18.3043 66.3704 18.5488C65.7524 18.7889 65.0455 18.9089 64.2497 18.9089ZM79.703 8.46553L76.0552 18.7089H73.3876L69.7398 8.46553H72.314L74.6681 16.0747H74.7748L77.1355 8.46553H79.703ZM85.885 4.41088L81.4836 20.7629H79.3696L83.771 4.41088H85.885ZM93.9543 14.4008V8.46553H96.3684V18.7089H94.0277V16.8883H93.921C93.6898 17.4618 93.3097 17.9308 92.7806 18.2954C92.256 18.66 91.6091 18.8422 90.84 18.8422C90.1686 18.8422 89.5751 18.6933 89.0594 18.3954C88.5481 18.0931 88.148 17.6552 87.859 17.0817C87.57 16.5037 87.4255 15.8057 87.4255 14.9877V8.46553H89.8396V14.6142C89.8396 15.2633 90.0175 15.779 90.3732 16.1614C90.7288 16.5437 91.1956 16.7349 91.7736 16.7349C92.1293 16.7349 92.4738 16.6482 92.8073 16.4748C93.1407 16.3014 93.4141 16.0436 93.6275 15.7012C93.8454 15.3544 93.9543 14.921 93.9543 14.4008ZM98.8509 18.7089V8.46553H101.265V18.7089H98.8509ZM100.065 7.01173C99.6823 7.01173 99.3533 6.88502 99.0777 6.6316C98.802 6.37374 98.6642 6.06475 98.6642 5.70463C98.6642 5.34007 98.802 5.03108 99.0777 4.77767C99.3533 4.5198 99.6823 4.39087 100.065 4.39087C100.451 4.39087 100.78 4.5198 101.052 4.77767C101.327 5.03108 101.465 5.34007 101.465 5.70463C101.465 6.06475 101.327 6.37374 101.052 6.6316C100.78 6.88502 100.451 7.01173 100.065 7.01173Z" fill="white"/>
</svg>
