<?xml version="1.0" encoding="UTF-8"?>
<svg id="Calque_2" data-name="Calque 2" xmlns="http://www.w3.org/2000/svg" viewBox="0 0 927.43 150.18">
  <defs>
    <style>
      .cls-1 {
        fill: #fff;
      }

      .cls-2 {
        fill: #218366;
      }
    </style>
  </defs>
  <g id="Calque_1-2" data-name="Calque 1">
    <g>
      <g>
        <path class="cls-1" d="m107.54,128.28c-.03,3.56-1.92,5.77-5.64,5.79-3.96.02-5.75-2.27-5.78-6.08-.03-5.19.04-10.38-.06-15.57-.04-1.96-.04-4.09-.8-5.82-.59-1.36-2.31-3.08-3.52-3.07-1.2,0-3.28,1.87-3.42,3.1-.54,4.67-.46,9.41-.61,14.13-.09,2.74,0,5.5-.3,8.22-.37,3.35-2.4,5.19-5.84,5.11-3.44-.09-5.41-2-5.55-5.39-.17-3.96-.04-7.93-.04-11.9h.1c0-3.81-.21-7.64.04-11.44.54-8.06,6.66-13.64,14.75-13.76,9.42-.15,15.91,4.81,16.45,13.36.49,7.75.27,15.55.21,23.33Z"/>
        <path class="cls-2" d="m175.77,143.73c-3.73,1.89-8.96,2.48-13.1,1.63-12.74-2.63-25.28-6.21-37.89-9.46-5.55-1.43-8.35-5.11-8.42-10.92-.03-2.6.09-5.19-.03-7.78-.18-3.62.95-5.25,4.83-3.88,2.28.8,4.69,1.67,7.04,1.67,2.15,0,5.01-.53,6.21-1.97.96-1.15.61-4.47-.4-6.02-12.43-19.12-25.05-38.11-37.72-57.07-2.68-4.01-6.39-3.91-9.12.16-12.58,18.83-25.16,37.67-37.5,56.65-1.07,1.64-1.28,4.73-.48,6.5,1.18,2.61,3.98,2.95,6.73,1.66.67-.31,1.51-.23,2.23-.45,10.37-3.03,8.98-2.1,9.02,7.03,0,10.6-1.74,12.75-12.08,15.35-11.31,2.84-22.58,5.78-33.89,8.63-9.79,2.47-17.7-1.75-20.54-10.88-1.69-5.44.08-10.11,3.05-14.58,16.99-25.58,33.97-51.17,50.96-76.75,7.48-11.27,14.94-22.56,22.48-33.79,8.38-12.47,20.78-12.67,29.04-.28,24.7,37.06,49.29,74.19,73.86,111.34,5.78,8.74,4.2,18.91-4.28,23.2Z"/>
      </g>
      <g>
        <path class="cls-1" d="m305.11,10.86h17.03c2.48,0,3.87,1.39,3.87,3.87v100.62c0,2.48-1.39,3.87-3.87,3.87h-11.61c-2.01,0-3.71-.77-4.8-2.48l-37-57.9v56.5c0,2.48-1.39,3.87-3.87,3.87h-17.03c-2.48,0-3.87-1.39-3.87-3.87V14.73c0-2.48,1.39-3.87,3.87-3.87h11.61c2.01,0,3.72.77,4.8,2.48l37,57.9V14.73c0-2.48,1.39-3.87,3.87-3.87Z"/>
        <path class="cls-1" d="m339.95,80.52c0-23.07,18.27-40.87,41.02-40.87s41.02,17.8,41.02,40.87-18.27,40.87-41.02,40.87-41.02-17.8-41.02-40.87Zm58.83,0c0-10.99-7.74-18.27-17.8-18.27s-17.8,7.28-17.8,18.27,7.74,18.27,17.8,18.27,17.8-7.28,17.8-18.27Z"/>
        <path class="cls-1" d="m475.41,45.69v14.55c0,2.48-1.39,3.87-3.87,3.87h-8.51v51.24c0,2.48-1.39,3.87-3.87,3.87h-15.48c-2.48,0-3.87-1.39-3.87-3.87v-51.24h-8.51c-2.48,0-3.87-1.39-3.87-3.87v-14.55c0-2.48,1.39-3.87,3.87-3.87h8.51v-20.9c0-2.48,1.39-3.87,3.87-3.87h15.48c2.48,0,3.87,1.39,3.87,3.87v20.9h8.51c2.48,0,3.87,1.39,3.87,3.87Z"/>
        <path class="cls-1" d="m559.93,94.14c-4.8,16.1-19.97,27.25-38.08,27.25-23.53,0-41.02-17.8-41.02-40.87s17.49-40.87,41.02-40.87c18.11,0,33.28,11.15,38.08,27.25.93,2.63-.62,4.34-3.25,4.34h-17.03c-2.01,0-3.41-.93-4.64-2.63-2.79-3.87-7.59-6.04-13.16-6.04-10.06,0-17.8,7.27-17.8,17.96s7.74,17.96,17.8,17.96c5.57,0,10.37-2.17,13.16-5.88,1.24-1.86,2.48-2.79,4.64-2.79h17.03c2.63,0,4.18,1.7,3.25,4.34Z"/>
        <path class="cls-1" d="m639.97,70.15v45.2c0,2.48-1.39,3.87-3.87,3.87h-15.48c-2.48,0-3.87-1.39-3.87-3.87v-43.19c0-7.74-4.49-11.15-10.37-11.15-6.97,0-11.3,3.87-11.3,13v41.33c0,2.48-1.39,3.87-3.87,3.87h-15.48c-2.48,0-3.87-1.39-3.87-3.87V14.73c0-2.48,1.39-3.87,3.87-3.87h15.48c2.48,0,3.87,1.39,3.87,3.87v34.16c3.64-5.38,10.23-9.24,20.12-9.24,14.4,0,24.77,11.15,24.77,30.5Z"/>
        <path class="cls-2" d="m773.41,48.01c0,20.59-16.56,37.15-37.93,37.15h-16.25v30.19c0,2.48-1.39,3.87-3.87,3.87h-17.03c-2.48,0-3.87-1.39-3.87-3.87V14.73c0-2.48,1.39-3.87,3.87-3.87h37.15c21.36,0,37.93,16.56,37.93,37.15Zm-24.77,0c0-7.89-5.57-13.93-13.16-13.93h-16.25v27.87h16.25c7.59,0,13.16-6.04,13.16-13.93Z"/>
        <path class="cls-2" d="m844.63,70.46v44.89c0,2.48-1.39,3.87-3.87,3.87h-14.86c-2.48,0-3.87-1.39-3.87-3.87v-2.21c-4.15,4.86-10.24,8.25-19.97,8.25-13.62,0-25.54-8.05-25.54-24.15s11.92-24.15,25.54-24.15c9.73,0,15.82,2.74,19.97,5.9v-6.99c0-7.58-3.1-10.99-9.6-10.99-4.8,0-7.74,1.86-8.98,4.49-.93,2.17-1.7,3.41-4.03,3.41h-15.17c-2.48,0-4.03-1.39-3.87-4.03,2.01-16.72,16.25-25.23,32.04-25.23,17.03,0,32.2,9.91,32.2,30.81Zm-22.6,26.78c0-4.8-4.18-7.74-11.77-7.74-7.12,0-10.53,3.25-10.53,7.74s3.41,7.74,10.53,7.74c7.59,0,11.77-3.25,11.77-7.74Z"/>
        <path class="cls-2" d="m907.17,41.82h16.72c2.79,0,4.18,1.55,3.25,4.33l-33.44,100.93c-.62,2.17-2.32,3.1-4.49,3.1h-16.72c-2.79,0-4.18-1.55-3.25-4.34l9.29-27.86-27.25-71.67c-.93-2.63.31-4.49,3.1-4.49h16.72c2.17,0,3.56,1.08,4.34,3.1l14.71,41.02,12.69-40.87c.62-2.17,2.17-3.25,4.33-3.25Z"/>
      </g>
    </g>
  </g>
</svg>