<svg xmlns="http://www.w3.org/2000/svg" viewBox="0 0 936.68 746.17"><defs><style>.a7d9e789-3a73-4922-b427-b0de02b1675e{fill:#37384e;}.beae469c-ca47-4dd1-91fe-6633bb4d13e1{fill:#218366;}</style></defs><g id="aa842612-dcf0-4148-a098-2a3d231e35cb" data-name="Calque 2"><g id="be7df168-eab2-4701-a951-cfd367a357bf" data-name="Calque 1"><path class="a7d9e789-3a73-4922-b427-b0de02b1675e" d="M549,654.84c-.16,18.19-9.82,29.47-28.81,29.56-20.23.11-29.37-11.6-29.48-31-.15-26.5.22-53-.3-79.48-.17-10-.21-20.88-4.06-29.72-3-6.93-11.82-15.71-18-15.64S451.62,538,450.91,544.3c-2.79,23.84-2.33,48.06-3.09,72.14-.46,14,0,28.07-1.56,41.94-1.88,17.12-12.25,26.52-29.82,26.06s-27.62-10.18-28.33-27.53c-.86-20.22-.22-40.49-.22-60.74h.52c0-19.47-1.08-39,.22-58.37,2.79-41.12,34-69.63,75.33-70.25,48.08-.74,81.19,24.57,83.95,68.2C550.42,575.31,549.3,615.14,549,654.84Z"/><path class="beae469c-ca47-4dd1-91fe-6633bb4d13e1" d="M897.3,733.73c-19,9.66-45.75,12.67-66.84,8.32-65-13.42-129.07-31.7-193.43-48.27-28.31-7.31-42.61-26.08-43-55.78-.17-13.24.5-26.51-.17-39.71-.89-18.5,4.88-26.82,24.7-19.84,11.6,4.08,23.92,8.53,35.91,8.53,11,0,25.61-2.72,31.68-10,4.88-5.9,3.11-22.8-2-30.73Q588.9,399.88,491.54,254.91c-13.68-20.45-32.66-20-46.55.84C380.74,351.87,316.56,448.05,253.53,545c-5.47,8.41-6.53,24.14-2.45,33.2,6,13.28,20.32,15.06,34.34,8.44,3.39-1.59,7.69-1.18,11.41-2.26,52.9-15.48,45.84-10.74,46.05,35.89,0,54.09-8.88,65.09-61.67,78.33-57.72,14.48-115.29,29.5-173,44.07-50,12.62-90.37-9-104.87-55.56-8.62-27.77.41-51.63,15.56-74.43Q149.05,416.76,279.09,220.81c38.21-57.55,76.26-115.18,114.77-172.49,42.76-63.66,106.1-64.7,148.26-1.43q189.11,283.8,377,568.4C948.67,659.92,940.58,711.84,897.3,733.73Z"/></g></g></svg>