<svg xmlns="http://www.w3.org/2000/svg" viewBox="0 0 927.43 150.18"><defs><style>.bcf53c30-b6ed-40be-9b39-caac39313e36{fill:#37384e;}.fe34c507-704b-4ebd-a327-ae1df41b7312{fill:#218366;}</style></defs><g id="a16df4e8-3aad-4826-b216-5ea53f937178" data-name="Calque 2"><g id="b62700b8-cc26-42a0-8708-7234aff2a0e9" data-name="Calque 1"><path class="bcf53c30-b6ed-40be-9b39-caac39313e36" d="M107.54,128.28c0,3.56-1.92,5.77-5.64,5.79-4,0-5.75-2.27-5.77-6.09,0-5.19,0-10.38-.06-15.56a15.82,15.82,0,0,0-.8-5.83c-.59-1.35-2.32-3.07-3.52-3.06a4.67,4.67,0,0,0-3.42,3.09c-.55,4.67-.46,9.42-.61,14.13-.09,2.74,0,5.5-.3,8.22-.37,3.35-2.4,5.19-5.84,5.11s-5.41-2-5.56-5.4c-.16-4,0-7.93,0-11.9h.11c0-3.81-.22-7.64,0-11.43.54-8.06,6.65-13.64,14.75-13.76,9.42-.15,15.91,4.81,16.45,13.35C107.82,112.7,107.6,120.5,107.54,128.28Z"/><path class="fe34c507-704b-4ebd-a327-ae1df41b7312" d="M175.77,143.73a21.47,21.47,0,0,1-13.09,1.63c-12.74-2.63-25.28-6.21-37.89-9.46-5.55-1.43-8.35-5.11-8.43-10.92,0-2.6.1-5.2,0-7.78-.18-3.63,1-5.25,4.83-3.89a22.11,22.11,0,0,0,7,1.67c2.14,0,5-.53,6.2-2,1-1.16.61-4.47-.4-6Q115.35,78.34,96.28,49.94c-2.67-4-6.39-3.92-9.11.16C74.58,68.93,62,87.77,49.66,106.75a7.91,7.91,0,0,0-.48,6.5c1.18,2.61,4,3,6.73,1.66a16,16,0,0,1,2.23-.45c10.37-3,9-2.1,9,7,0,10.6-1.74,12.75-12.08,15.35-11.31,2.84-22.59,5.78-33.89,8.63-9.79,2.47-17.7-1.75-20.54-10.88C-1,129.15.74,124.47,3.71,120q25.49-38.37,51-76.76C62.15,32,69.61,20.69,77.15,9.46c8.38-12.47,20.79-12.67,29-.27q37,55.59,73.86,111.34C185.83,129.27,184.25,139.44,175.77,143.73Z"/><path class="bcf53c30-b6ed-40be-9b39-caac39313e36" d="M305.11,10.86h17A3.5,3.5,0,0,1,326,14.73V115.35a3.5,3.5,0,0,1-3.87,3.87H310.53a5.38,5.38,0,0,1-4.8-2.48l-37-57.89v56.5a3.51,3.51,0,0,1-3.88,3.87h-17a3.5,3.5,0,0,1-3.87-3.87V14.73a3.5,3.5,0,0,1,3.87-3.87h11.61a5.39,5.39,0,0,1,4.8,2.47l37,57.9V14.73A3.51,3.51,0,0,1,305.11,10.86Z"/><path class="bcf53c30-b6ed-40be-9b39-caac39313e36" d="M340,80.52a41,41,0,1,1,41,40.87A40.57,40.57,0,0,1,340,80.52Zm58.82,0c0-11-7.74-18.27-17.8-18.27s-17.8,7.28-17.8,18.27,7.74,18.27,17.8,18.27S398.77,91.51,398.77,80.52Z"/><path class="bcf53c30-b6ed-40be-9b39-caac39313e36" d="M475.41,45.69V60.24a3.51,3.51,0,0,1-3.87,3.87H463v51.24a3.5,3.5,0,0,1-3.87,3.87H443.67a3.5,3.5,0,0,1-3.87-3.87V64.11h-8.51a3.5,3.5,0,0,1-3.87-3.87V45.69a3.5,3.5,0,0,1,3.87-3.87h8.51V20.92a3.5,3.5,0,0,1,3.87-3.87h15.48A3.5,3.5,0,0,1,463,20.92v20.9h8.52A3.51,3.51,0,0,1,475.41,45.69Z"/><path class="bcf53c30-b6ed-40be-9b39-caac39313e36" d="M559.93,94.14c-4.8,16.1-20,27.25-38.08,27.25-23.53,0-41-17.8-41-40.87s17.49-40.87,41-40.87c18.11,0,33.28,11.15,38.08,27.25.93,2.63-.62,4.33-3.25,4.33h-17A5.45,5.45,0,0,1,535,68.6c-2.79-3.87-7.59-6-13.16-6-10.06,0-17.8,7.28-17.8,18s7.74,18,17.8,18c5.57,0,10.37-2.17,13.16-5.88,1.24-1.86,2.47-2.79,4.64-2.79h17C559.31,89.81,560.86,91.51,559.93,94.14Z"/><path class="bcf53c30-b6ed-40be-9b39-caac39313e36" d="M640,70.15v45.2a3.51,3.51,0,0,1-3.87,3.87H620.62a3.5,3.5,0,0,1-3.87-3.87V72.16c0-7.74-4.49-11.14-10.37-11.14-7,0-11.31,3.86-11.31,13v41.33a3.5,3.5,0,0,1-3.87,3.87H575.72a3.51,3.51,0,0,1-3.87-3.87V14.73a3.51,3.51,0,0,1,3.87-3.87H591.2a3.5,3.5,0,0,1,3.87,3.87V48.89c3.64-5.38,10.23-9.24,20.13-9.24C629.6,39.65,640,50.8,640,70.15Z"/><path class="fe34c507-704b-4ebd-a327-ae1df41b7312" d="M773.41,48c0,20.59-16.56,37.15-37.93,37.15H719.23v30.19a3.5,3.5,0,0,1-3.87,3.87h-17a3.5,3.5,0,0,1-3.87-3.87V14.73a3.5,3.5,0,0,1,3.87-3.87h37.15C756.85,10.86,773.41,27.42,773.41,48Zm-24.77,0c0-7.89-5.57-13.93-13.16-13.93H719.23V61.94h16.25C743.07,61.94,748.64,55.91,748.64,48Z"/><path class="fe34c507-704b-4ebd-a327-ae1df41b7312" d="M844.63,70.46v44.89a3.51,3.51,0,0,1-3.87,3.87H825.89a3.51,3.51,0,0,1-3.87-3.87v-2.21c-4.15,4.86-10.24,8.25-20,8.25-13.62,0-25.54-8-25.54-24.15s11.92-24.15,25.54-24.15c9.73,0,15.82,2.74,20,5.9V72c0-7.59-3.09-11-9.59-11-4.8,0-7.74,1.85-9,4.48-.93,2.17-1.71,3.41-4,3.41H784.25c-2.48,0-4-1.39-3.87-4,2-16.71,16.26-25.23,32-25.23C829.45,39.65,844.63,49.56,844.63,70.46ZM822,97.24c0-4.8-4.18-7.74-11.76-7.74-7.12,0-10.53,3.25-10.53,7.74s3.41,7.74,10.53,7.74C817.84,105,822,101.73,822,97.24Z"/><path class="fe34c507-704b-4ebd-a327-ae1df41b7312" d="M907.17,41.82h16.72c2.78,0,4.18,1.55,3.25,4.33L893.7,147.09c-.62,2.16-2.32,3.09-4.49,3.09H872.49c-2.78,0-4.18-1.55-3.25-4.33L878.53,118,851.29,46.31c-.93-2.63.3-4.49,3.09-4.49H871.1a4.31,4.31,0,0,1,4.33,3.1l14.71,41,12.7-40.87A4.16,4.16,0,0,1,907.17,41.82Z"/></g></g></svg>