<?xml version="1.0" encoding="UTF-8"?>
<svg version="1.1" xmlns="http://www.w3.org/2000/svg" width="1163" height="1163">
<path d="M0 0 C1.50433594 -0.00386719 1.50433594 -0.00386719 3.0390625 -0.0078125 C5.375 0.125 5.375 0.125 6.375 1.125 C7.78586329 1.27288567 9.20126798 1.377796 10.6171875 1.46484375 C17.14730541 2.05923104 23.2270768 3.84574057 29.5 5.6875 C30.64726563 6.01685547 31.79453125 6.34621094 32.9765625 6.68554688 C35.77834858 7.49106037 38.57762355 8.30432967 41.375 9.125 C41.375 9.785 41.375 10.445 41.375 11.125 C41.92027344 11.28355469 42.46554687 11.44210938 43.02734375 11.60546875 C53.38888135 14.81134619 62.78429573 20.54024698 71.375 27.125 C71.375 27.785 71.375 28.445 71.375 29.125 C72.695 29.455 74.015 29.785 75.375 30.125 C75.375 30.785 75.375 31.445 75.375 32.125 C76.035 32.125 76.695 32.125 77.375 32.125 C77.375 32.785 77.375 33.445 77.375 34.125 C78.035 34.125 78.695 34.125 79.375 34.125 C79.375 34.785 79.375 35.445 79.375 36.125 C80.303125 36.2178125 80.303125 36.2178125 81.25 36.3125 C83.375 37.125 83.375 37.125 84.625 39.6875 C84.8725 40.491875 85.12 41.29625 85.375 42.125 C86.035 42.125 86.695 42.125 87.375 42.125 C87.375 42.785 87.375 43.445 87.375 44.125 C88.035 44.125 88.695 44.125 89.375 44.125 C92.375 47.58653846 92.375 47.58653846 92.375 50.125 C93.035 50.125 93.695 50.125 94.375 50.125 C94.375 50.785 94.375 51.445 94.375 52.125 C95.035 52.125 95.695 52.125 96.375 52.125 C96.375 53.115 96.375 54.105 96.375 55.125 C97.035 55.125 97.695 55.125 98.375 55.125 C101.375 60.875 101.375 60.875 101.375 63.125 C102.035 63.125 102.695 63.125 103.375 63.125 C103.375 64.445 103.375 65.765 103.375 67.125 C104.035 67.125 104.695 67.125 105.375 67.125 C105.705 68.775 106.035 70.425 106.375 72.125 C107.035 72.125 107.695 72.125 108.375 72.125 C108.705 74.435 109.035 76.745 109.375 79.125 C110.035 79.125 110.695 79.125 111.375 79.125 C115.00531628 95.18175092 118.12185221 111.28494412 120.9543457 127.49975586 C121.3901532 129.9741455 121.82637063 132.44846296 122.26295757 134.92271519 C123.20234082 140.25171835 124.13892945 145.58120032 125.07293701 150.91114807 C126.45731029 158.81096708 127.84715312 166.70981715 129.23810644 174.6084799 C131.57311524 187.86881126 133.90402518 201.12985985 136.23257446 214.3913269 C139.5736941 233.41925065 142.92076251 252.44612508 146.26917337 271.47276695 C147.46050833 278.24236376 148.65172485 285.01198142 149.84293591 291.78160004 C150.1426263 293.48473108 150.44231919 295.18786167 150.74201459 296.89099183 C152.86368579 308.94825749 154.98458798 321.0056582 157.10489038 333.06316464 C165.19071975 379.04469482 173.29035377 425.02376719 181.40625 471 C181.66809736 472.48338188 181.92994454 473.96676378 182.19179153 475.45014572 C184.89165558 490.74494786 187.59196263 506.03967177 190.29253399 521.33434904 C195.23392007 549.31987637 200.17322767 577.30577053 205.11212826 605.2917366 C205.46775602 607.30686768 205.82338902 609.32199783 206.17902374 611.33712769 C218.52297973 681.28168138 230.84672566 751.22979491 243.15930426 821.17987859 C243.40619509 822.58245928 243.65310903 823.9850359 243.90004766 825.38760817 C244.47067725 828.6288032 245.04090138 831.87006853 245.61043739 835.11145592 C246.51428024 840.25315919 247.42072245 845.39423352 248.34799194 850.5317688 C248.48961101 851.32013658 248.63123007 852.10850435 248.77714062 852.92076206 C249.12952696 854.87832789 249.48506095 856.83532647 249.84098816 858.79225159 C250.65628483 863.88048837 251.08763931 868.98223457 251.375 874.125 C250.715 874.125 250.055 874.125 249.375 874.125 C249.560625 875.053125 249.74625 875.98125 249.9375 876.9375 C250.69241955 882.03320694 249.97252133 887.04147238 249.375 892.125 C248.715 892.125 248.055 892.125 247.375 892.125 C247.705 893.445 248.035 894.765 248.375 896.125 C247.715 896.125 247.055 896.125 246.375 896.125 C246.705 897.445 247.035 898.765 247.375 900.125 C246.715 900.125 246.055 900.125 245.375 900.125 C245.705 901.445 246.035 902.765 246.375 904.125 C245.715 904.125 245.055 904.125 244.375 904.125 C244.26542969 904.76566406 244.15585938 905.40632812 244.04296875 906.06640625 C243.05284093 911.46783524 241.87841896 916.2224712 239.375 921.125 C238.715 921.455 238.055 921.785 237.375 922.125 C237.00628912 923.78419896 236.67904678 925.45274271 236.375 927.125 C235.74062656 928.8042238 235.08210678 930.47508418 234.375 932.125 C233.715 932.125 233.055 932.125 232.375 932.125 C232.1275 932.81980469 231.88 933.51460937 231.625 934.23046875 C230.18488144 937.56524329 228.38424962 940.41254515 226.375 943.4375 C225.67375 944.50613281 224.9725 945.57476563 224.25 946.67578125 C223.63125 947.48402344 223.0125 948.29226563 222.375 949.125 C221.715 949.125 221.055 949.125 220.375 949.125 C220.2925 949.7025 220.21 950.28 220.125 950.875 C219.15702213 953.7789336 217.68805716 955.16240604 215.375 957.125 C214.715 957.125 214.055 957.125 213.375 957.125 C213.375 957.785 213.375 958.445 213.375 959.125 C212.0546875 960.45703125 212.0546875 960.45703125 210.25 961.9375 C209.29673828 962.72447266 209.29673828 962.72447266 208.32421875 963.52734375 C207.68097656 964.05457031 207.03773437 964.58179688 206.375 965.125 C205.80394531 965.62128906 205.23289062 966.11757813 204.64453125 966.62890625 C200.61057692 970.125 200.61057692 970.125 198.375 970.125 C198.375 970.785 198.375 971.445 198.375 972.125 C197.385 972.125 196.395 972.125 195.375 972.125 C195.375 972.785 195.375 973.445 195.375 974.125 C188.73670213 977.95478723 188.73670213 977.95478723 186.25 979.125 C184.18363079 980.1322919 184.18363079 980.1322919 182.0625 982.1875 C178.8112917 984.53139436 176.32329026 984.81533018 172.375 985.125 C172.375 985.785 172.375 986.445 172.375 987.125 C155.79617434 990.89323939 139.15716586 994.04148252 122.40625 996.9375 C119.69694424 997.40922014 116.98791532 997.88252129 114.27888489 998.3558197 C108.3365925 999.39332854 102.39376413 1000.42771747 96.45059204 1001.46017456 C81.06319929 1004.13369389 65.67894644 1006.82522469 50.29436684 1009.51487541 C46.48582779 1010.18070469 42.67725074 1010.84631602 38.86864281 1011.51175117 C5.51744629 1017.33908698 -27.8268031 1023.20540291 -61.16796875 1029.08984375 C-62.40244601 1029.30771805 -63.63692328 1029.52559235 -64.90880895 1029.7500689 C-80.38974737 1032.48243711 -95.8704705 1035.21602414 -111.35111421 1037.9500615 C-135.08724697 1042.14209072 -158.82365497 1046.33256136 -182.56006664 1050.52301093 C-186.78949154 1051.2696796 -191.01891219 1052.01637231 -195.24832966 1052.76308307 C-241.69326563 1060.96299733 -288.13989453 1069.15328317 -334.58744407 1077.33837962 C-339.65840612 1078.23199759 -344.72936241 1079.12564828 -349.80031776 1080.01930428 C-380.29242909 1085.39292502 -410.78458681 1090.76628234 -441.27704929 1096.13791017 C-454.36902769 1098.44423089 -467.46092676 1100.75100159 -480.55275548 1103.05817187 C-488.31824942 1104.42666389 -496.08380752 1105.79479051 -503.84947074 1107.16232166 C-509.71642397 1108.19553113 -515.5832427 1109.22950312 -521.450032 1110.26364303 C-523.95344955 1110.70475756 -526.45691652 1111.14559174 -528.96043515 1111.58613229 C-542.12144492 1113.90206236 -555.27883979 1116.23599691 -568.42720779 1118.62267088 C-572.92814578 1119.43906182 -577.42979733 1120.25151807 -581.93123543 1121.06514609 C-585.51506828 1121.71525544 -589.0975445 1122.37248511 -592.68001461 1123.03005505 C-613.35305639 1126.78815555 -613.35305639 1126.78815555 -623.625 1127.125 C-623.625 1126.465 -623.625 1125.805 -623.625 1125.125 C-624.57375 1125.310625 -625.5225 1125.49625 -626.5 1125.6875 C-631.26979926 1126.39268593 -635.87424288 1125.74632638 -640.625 1125.125 C-640.625 1124.465 -640.625 1123.805 -640.625 1123.125 C-642.275 1123.455 -643.925 1123.785 -645.625 1124.125 C-645.625 1123.465 -645.625 1122.805 -645.625 1122.125 C-646.2025 1122.310625 -646.78 1122.49625 -647.375 1122.6875 C-649.83192525 1123.16523546 -651.26897534 1122.88229364 -653.625 1122.125 C-653.625 1121.465 -653.625 1120.805 -653.625 1120.125 C-654.615 1120.455 -655.605 1120.785 -656.625 1121.125 C-656.625 1120.465 -656.625 1119.805 -656.625 1119.125 C-657.20507812 1119.00382812 -657.78515625 1118.88265625 -658.3828125 1118.7578125 C-662.90528442 1117.78764526 -667.26250966 1116.69102217 -671.625 1115.125 C-671.625 1114.465 -671.625 1113.805 -671.625 1113.125 C-676.08 1111.64 -676.08 1111.64 -680.625 1110.125 C-680.625 1109.465 -680.625 1108.805 -680.625 1108.125 C-681.89150391 1107.77888672 -681.89150391 1107.77888672 -683.18359375 1107.42578125 C-687.20686381 1105.90506737 -690.24533556 1103.84470981 -693.6875 1101.3125 C-694.28626953 1100.88646484 -694.88503906 1100.46042969 -695.50195312 1100.02148438 C-699.21857018 1097.33070247 -702.41884261 1094.4235382 -705.625 1091.125 C-707.48169453 1089.56638216 -709.36647323 1088.05603392 -711.26953125 1086.5546875 C-712.625 1085.125 -712.625 1085.125 -712.625 1082.125 C-713.285 1082.125 -713.945 1082.125 -714.625 1082.125 C-714.625 1081.465 -714.625 1080.805 -714.625 1080.125 C-715.285 1080.125 -715.945 1080.125 -716.625 1080.125 C-716.625 1079.135 -716.625 1078.145 -716.625 1077.125 C-717.285 1077.125 -717.945 1077.125 -718.625 1077.125 C-721.625 1073.66346154 -721.625 1073.66346154 -721.625 1071.125 C-722.285 1071.125 -722.945 1071.125 -723.625 1071.125 C-725.625 1068.125 -725.625 1068.125 -725.625 1064.125 C-726.285 1064.125 -726.945 1064.125 -727.625 1064.125 C-727.955 1062.475 -728.285 1060.825 -728.625 1059.125 C-729.285 1059.125 -729.945 1059.125 -730.625 1059.125 C-730.934375 1058.320625 -731.24375 1057.51625 -731.5625 1056.6875 C-732.38835345 1054.23419595 -732.38835345 1054.23419595 -733.625 1053.125 C-733.66563832 1051.45882885 -733.667721 1049.79111905 -733.625 1048.125 C-734.285 1048.125 -734.945 1048.125 -735.625 1048.125 C-738.46993894 1038.7919595 -740.64080312 1029.5712793 -742.28320312 1019.94335938 C-742.5250584 1018.5593748 -742.76759422 1017.17550901 -743.01073647 1015.79174995 C-743.53725316 1012.786697 -744.05898861 1009.78086703 -744.57703018 1006.77434158 C-745.43653999 1001.78655295 -746.30713901 996.80073116 -747.17868042 991.81503296 C-748.47579735 984.38849737 -749.76788827 976.9611018 -751.05682373 969.53314209 C-754.31257352 950.77344466 -757.5940177 932.01822692 -760.87311935 913.26259995 C-761.67897091 908.65319662 -762.4844503 904.04372849 -763.28963089 899.43420792 C-770.61569765 857.49603799 -778.01045228 815.5702086 -785.4296875 773.6484375 C-785.56766429 772.86878592 -785.70564107 772.08913435 -785.84779897 771.28585696 C-789.23270245 752.15917041 -792.61915344 733.03275799 -796.00622638 713.90645552 C-801.3716657 683.60847814 -806.73380084 653.30991586 -812.09420958 623.01104808 C-812.50347661 620.69774095 -812.91275479 618.38443579 -813.32203364 616.07113075 C-823.14281046 560.5618078 -832.92172435 505.04526461 -842.62104249 449.51457644 C-843.60031582 443.90836248 -844.58001295 438.3022226 -845.56001234 432.69613552 C-845.79739027 431.33820951 -846.03474637 429.98027969 -846.27207994 428.62234592 C-849.95755225 407.53711141 -853.69406297 386.46126028 -857.4571209 365.38973999 C-858.29162868 360.71631006 -859.12473869 356.04263169 -859.95753479 351.36889648 C-860.36568774 349.07863356 -860.77385288 346.78837281 -861.1820215 344.49811268 C-861.45127654 342.98726186 -861.72050977 341.47640715 -861.98972094 339.96554852 C-863.5345761 331.29653739 -865.08502722 322.6285749 -866.64595336 313.96244252 C-867.70320001 308.09030024 -868.75151971 302.21660046 -869.79669762 296.3422966 C-870.22150182 293.96397218 -870.64942548 291.58620233 -871.08082008 289.20906448 C-877.68026643 252.82418995 -877.68026643 252.82418995 -874.625 240.125 C-874.45178223 239.34866211 -874.27856445 238.57232422 -874.10009766 237.77246094 C-873.48780773 235.13892149 -872.87009499 232.50671265 -872.25 229.875 C-872.04117188 228.97136719 -871.83234375 228.06773437 -871.6171875 227.13671875 C-870.25102456 221.34718679 -868.61269172 215.73183951 -866.625 210.125 C-865.965 210.125 -865.305 210.125 -864.625 210.125 C-864.50318359 208.87783203 -864.50318359 208.87783203 -864.37890625 207.60546875 C-863.45777096 203.35297373 -861.73553318 200.1711089 -859.5625 196.4375 C-859.1612793 195.73778076 -858.76005859 195.03806152 -858.34667969 194.31713867 C-853.61847424 186.20460206 -848.4677299 178.60758622 -841.625 172.125 C-840.04529977 170.26166282 -838.49242062 168.38046245 -836.95703125 166.48046875 C-836.51746094 166.03316406 -836.07789063 165.58585938 -835.625 165.125 C-834.965 165.125 -834.305 165.125 -833.625 165.125 C-833.625 164.465 -833.625 163.805 -833.625 163.125 C-832.965 163.125 -832.305 163.125 -831.625 163.125 C-831.625 162.465 -831.625 161.805 -831.625 161.125 C-830.635 161.125 -829.645 161.125 -828.625 161.125 C-828.625 160.465 -828.625 159.805 -828.625 159.125 C-827.965 159.125 -827.305 159.125 -826.625 159.125 C-826.625 158.465 -826.625 157.805 -826.625 157.125 C-823.42858226 154.72768669 -820.62381788 152.74020275 -816.625 152.125 C-816.625 151.465 -816.625 150.805 -816.625 150.125 C-813.71951118 148.08330515 -812.22357954 147.125 -808.625 147.125 C-808.625 146.465 -808.625 145.805 -808.625 145.125 C-807.820625 144.815625 -807.01625 144.50625 -806.1875 144.1875 C-803.73419595 143.36164655 -803.73419595 143.36164655 -802.625 142.125 C-800.95882885 142.08436168 -799.29111905 142.082279 -797.625 142.125 C-797.625 141.465 -797.625 140.805 -797.625 140.125 C-784.96859527 136.39493416 -772.15456363 134.09320437 -759.16943359 131.83032227 C-756.80168205 131.41267566 -754.43403285 130.99444854 -752.06647682 130.57569504 C-746.93773083 129.66991926 -741.80829053 128.76819181 -736.67819214 127.87011147 C-729.04731202 126.53421423 -721.41779378 125.19065976 -713.78852794 123.84557804 C-700.92118746 121.577208 -688.05278694 119.31490728 -675.18377686 117.05603027 C-662.34601941 114.80260628 -649.50877754 112.54627824 -636.67218018 110.28625488 C-635.86825372 110.14471571 -635.06432727 110.00317654 -634.23603942 109.85734831 C-630.14989609 109.13792421 -626.06376263 108.41844408 -621.97763371 107.69893813 C-613.66960341 106.23603737 -605.36150195 104.7735409 -597.05337524 103.31118774 C-596.2218566 103.16482805 -595.39033795 103.01846836 -594.53362177 102.86767353 C-575.63769903 99.54181815 -556.74105188 96.22008584 -537.84434554 92.89868608 C-509.65605203 87.94413608 -481.46822503 82.98694822 -453.28125 78.02490234 C-452.04590653 77.80743231 -452.04590653 77.80743231 -450.78560662 77.58556895 C-438.39869355 75.40495322 -426.01183558 73.22402458 -413.625 71.04296875 C-412.81279039 70.89995615 -412.00058078 70.75694355 -411.16375875 70.60959724 C-405.43851626 69.60150299 -399.7132762 68.59339493 -393.98803711 67.58528137 C-393.18116923 67.44320632 -392.37430135 67.30113127 -391.54298294 67.15475092 C-389.1026552 66.72505238 -386.66232761 66.29535297 -384.22200012 65.86565304 C-383.41826955 65.72412988 -382.61453899 65.58260671 -381.78645295 65.43679497 C-377.74160202 64.72456393 -373.69675289 64.01232271 -369.65190697 63.30006325 C-348.10900353 59.50656474 -326.5658224 55.71464786 -305.02240115 51.92409119 C-290.36899846 49.34580877 -275.71570078 46.76692968 -261.0625 44.1875 C-260.31699497 44.05626746 -259.57148993 43.92503493 -258.80339384 43.78982565 C-218.69345477 36.72905415 -178.58733053 29.64732706 -138.48846769 22.5238657 C-135.22323719 21.94384816 -131.95797757 21.36399486 -128.69270706 20.78420258 C-110.23282631 17.50638599 -91.77298178 14.22840207 -73.31616712 10.93335772 C-66.62658406 9.7392123 -59.93649176 8.54795235 -53.24597621 7.35904264 C-48.80719207 6.57006048 -44.36911282 5.77727986 -39.93161619 4.98108983 C-36.67560465 4.39809257 -33.41853901 3.82107575 -30.16162109 3.24316406 C-28.47451051 2.93843611 -28.47451051 2.93843611 -26.75331688 2.62755203 C-17.87768443 1.0623909 -9.02586167 -0.02381494 0 0 Z " fill="#FEFEFE" transform="translate(893.625,17.875)"/>
<path d="M0 0 C48.03939316 -0.08565528 96.07879197 -0.16525004 144.11824036 -0.2117157 C144.83007809 -0.21240598 145.54191583 -0.21309627 146.2753244 -0.21380747 C161.74822836 -0.22877459 177.22113314 -0.24262513 192.69403912 -0.25532665 C200.28276128 -0.26156293 207.87148323 -0.26804575 215.46020508 -0.2746582 C216.21534438 -0.275312 216.97048369 -0.27596579 217.748506 -0.2766394 C242.19216907 -0.29791801 266.63577407 -0.33545345 291.07940201 -0.3814861 C316.21392685 -0.42873351 341.3484196 -0.45944675 366.48298811 -0.46957495 C370.0390923 -0.47101557 373.59519638 -0.47264375 377.15130043 -0.47438622 C377.85114184 -0.47472333 378.55098325 -0.47506045 379.27203198 -0.47540778 C390.50403491 -0.48129938 401.73593815 -0.50444353 412.96790054 -0.53416017 C424.28014543 -0.56371665 435.5922625 -0.57440737 446.90455522 -0.56750689 C453.02560152 -0.56431476 459.146357 -0.56909507 465.26735115 -0.59602737 C470.88463692 -0.62056133 476.50143942 -0.62145811 482.11874858 -0.60449447 C484.1379612 -0.60240142 486.15720539 -0.60857196 488.17635693 -0.62441591 C502.10885656 -0.72727728 514.59951328 1.18657813 528 5 C529.8199506 5.51414012 529.8199506 5.51414012 531.67666787 6.0386669 C540.96675553 8.79059527 550.21457742 12.99755964 557 20 C558.6396875 20.86625 558.6396875 20.86625 560.3125 21.75 C564.1193795 23.81983854 566.48694975 26.59135139 569.23046875 29.8984375 C573.99320586 35.69657479 573.99320586 35.69657479 580 40 C581.3923402 42.31369851 582.70771229 44.63166854 584 47 C584.72720761 48.26860599 585.45507882 49.53683181 586.18359375 50.8046875 C591.63948527 60.55050818 595.49595411 70.11376487 598 81 C598.17261781 81.69165615 598.34523563 82.38331229 598.52308428 83.09592772 C600.64116191 92.79711398 600.28416851 102.60650069 600.26742554 112.48059082 C600.27116516 114.57194352 600.27576792 116.66329482 600.28115618 118.75464392 C600.29336321 124.485125 600.29312841 130.21554761 600.29076743 135.94603872 C600.29035868 142.13305144 600.30140407 148.32004555 600.31088257 154.50704956 C600.32748151 166.62320021 600.33301759 178.73932611 600.33410732 190.85548514 C600.33502763 200.70775195 600.33915068 210.56001246 600.34550858 220.41227722 C600.34730377 223.25184424 600.3490834 226.09141127 600.35085833 228.9309783 C600.35152148 229.98998101 600.35152148 229.98998101 600.35219802 231.07037772 C600.36450162 250.92156439 600.37239965 270.77274887 600.37151146 290.62393951 C600.3714803 291.3719272 600.37144914 292.11991488 600.37141704 292.89056886 C600.37125084 296.68136552 600.37105276 300.47216217 600.37084763 304.26295882 C600.37078779 305.39218112 600.37078779 305.39218112 600.37072675 306.54421598 C600.37064587 308.06659136 600.37056228 309.58896674 600.37047596 311.11134212 C600.36925112 334.7842136 600.38425339 358.45702774 600.41162109 382.12988281 C600.44238394 408.75024516 600.45955101 435.37056983 600.45769465 461.99095106 C600.4575454 464.83303293 600.45744798 467.67511479 600.45738602 470.51719666 C600.45735105 471.56681851 600.45735105 471.56681851 600.45731538 472.63764485 C600.457254 483.86848326 600.46999236 495.09927164 600.48725055 506.33009521 C600.50425624 517.63088098 600.50580118 528.93157427 600.4930319 540.23237294 C600.48651705 546.34712359 600.48633151 552.46169412 600.5037384 558.57642746 C600.51953981 564.18510766 600.51653352 569.79346596 600.49917014 575.40213865 C600.49611574 577.42030559 600.49967302 579.43849698 600.51089029 581.45663506 C600.60423123 599.45655561 598.40788887 615.81811041 590.3125 632.0625 C589.81427734 633.10470703 589.31605469 634.14691406 588.80273438 635.22070312 C587.23217708 638.49607159 585.62443858 641.75112285 584 645 C583.34 645 582.68 645 582 645 C581.34 646.98 580.68 648.96 580 651 C579.34 651 578.68 651 578 651 C577.72414063 651.59167969 577.44828125 652.18335938 577.1640625 652.79296875 C571.97099468 662.63888592 561.27457207 670.32837507 552 676 C551.34 676 550.68 676 550 676 C549.67 676.99 549.34 677.98 549 679 C546.3046875 680.0390625 546.3046875 680.0390625 543 681 C541.03340174 681.77090652 539.07496712 682.56294473 537.125 683.375 C536.07183594 683.81199219 535.01867187 684.24898437 533.93359375 684.69921875 C531.56506767 685.74944403 529.41703246 686.88490664 527.1875 688.1875 C515.58925994 693.99713007 499.55471975 692.28426515 486.95332336 692.25396729 C484.84940537 692.25627536 482.74548818 692.25945421 480.64157265 692.26342177 C474.89520702 692.27173047 469.14890827 692.26766244 463.40254247 692.26144934 C457.19188011 692.25690981 450.98122896 692.26391598 444.77056885 692.26940918 C433.31983174 692.27777594 421.86912427 692.27706889 410.41838734 692.27158624 C399.84007667 692.26654642 389.26177376 692.26524579 378.68346214 692.26763153 C377.62914526 692.26786069 377.62914526 692.26786069 376.55352905 692.26809447 C373.70003748 692.26871719 370.84654592 692.26935399 367.99305436 692.270014 C341.25245035 692.27612526 314.51185983 692.2705954 287.77125791 692.2598202 C264.03068491 692.25032663 240.29013336 692.25118164 216.54956055 692.26074219 C189.85196405 692.27145773 163.15437944 692.27569489 136.45678109 692.26951766 C133.60955092 692.26887626 130.76232074 692.26825058 127.91509056 692.26763153 C127.21407355 692.26747338 126.51305653 692.26731522 125.79079658 692.26715227 C115.21886328 692.26488023 104.64693859 692.2675324 94.07500648 692.27259064 C82.05295867 692.27831416 70.03094171 692.27667652 58.00889484 692.26602915 C51.87680748 692.26077699 45.74476365 692.25870804 39.61267662 692.26532745 C33.99658322 692.27129816 28.38057359 692.26799321 22.76448777 692.25737235 C20.73580014 692.25514313 18.7071054 692.25626384 16.67842237 692.26112393 C-14.33106847 692.32969946 -40.40813714 683.53265902 -62.75 661.5 C-68.89121399 655.22039246 -73.6548081 648.95192232 -77.78125 641.21484375 C-78.95123554 639.08862002 -80.22631251 637.08714995 -81.5625 635.0625 C-89.62877587 622.19185919 -92.16497073 606.24932791 -92.13142776 591.2653513 C-92.1334804 590.40606247 -92.13553303 589.54677365 -92.13764787 588.66144577 C-92.143305 585.78035061 -92.1418622 582.89930346 -92.14044189 580.01820374 C-92.14302627 577.93229109 -92.14603964 575.84637894 -92.1494453 573.76046747 C-92.15751012 568.02657234 -92.15930458 562.29268974 -92.16004276 556.55878961 C-92.16189424 550.37517802 -92.1694421 544.19157292 -92.17617798 538.00796509 C-92.19046676 523.77987353 -92.19628763 509.55178611 -92.20086992 495.3236891 C-92.20320747 488.28882127 -92.20681033 481.25395425 -92.2105653 474.21908706 C-92.22340024 450.12615932 -92.23411896 426.03323203 -92.2375679 401.94030094 C-92.23778953 400.4283736 -92.23801132 398.91644627 -92.23823325 397.40451893 C-92.23845389 395.88898905 -92.23867437 394.37345917 -92.2388947 392.85792929 C-92.23933725 389.81763971 -92.23978436 386.77735013 -92.24023438 383.73706055 C-92.24034377 382.98324765 -92.24045316 382.22943475 -92.24056586 381.45277904 C-92.24419494 357.02096579 -92.26010963 332.58918224 -92.28342474 308.15738035 C-92.30804386 282.31172922 -92.32174173 256.46609504 -92.32293582 230.62043184 C-92.32310727 227.78086912 -92.32332269 224.94130641 -92.32357025 222.1017437 C-92.32362602 221.40259068 -92.32368179 220.70343765 -92.32373925 219.98309817 C-92.32488795 208.75145544 -92.33589459 197.51984328 -92.35045731 186.28821085 C-92.36485349 174.98924261 -92.3677901 163.69032436 -92.36001733 152.39134551 C-92.35611611 146.27499653 -92.35701475 140.15875002 -92.37107468 134.04241371 C-92.38384506 128.43563139 -92.38258847 122.82902817 -92.37048396 117.22224598 C-92.3685324 115.20132083 -92.37158022 113.18038285 -92.38032833 111.15947569 C-92.44071528 96.25772295 -91.46307142 82.04789793 -86 68 C-85.59007812 66.86046875 -85.18015625 65.7209375 -84.7578125 64.546875 C-80.82217556 53.88631932 -75.51312988 44.63542314 -68 36 C-67.34 36 -66.68 36 -66 36 C-65.79375 35.46375 -65.5875 34.9275 -65.375 34.375 C-63.46749574 31.08021991 -60.95180616 28.40636372 -58 26 C-57.34 26 -56.68 26 -56 26 C-56 25.34 -56 24.68 -56 24 C-54.09587525 22.3645192 -52.20199329 20.86205387 -50.1875 19.375 C-49.64029297 18.95476562 -49.09308594 18.53453125 -48.52929688 18.1015625 C-44.37541853 15 -44.37541853 15 -41 15 C-41 14.34 -41 13.68 -41 13 C-22.00636104 4.05330116 -22.00636104 4.05330116 -12 3 C-11.67 2.67 -11.34 2.34 -11 2 C-9.14712498 1.92773498 -7.29166122 1.9161878 -5.4375 1.9375 C-4.42558594 1.94652344 -3.41367187 1.95554688 -2.37109375 1.96484375 C-1.58863281 1.97644531 -0.80617188 1.98804688 0 2 C0 1.34 0 0.68 0 0 Z " fill="#FEFEFE" transform="translate(328,234)"/>
<path d="M0 0 C48.03939316 -0.08565528 96.07879197 -0.16525004 144.11824036 -0.2117157 C144.83007809 -0.21240598 145.54191583 -0.21309627 146.2753244 -0.21380747 C161.74822836 -0.22877459 177.22113314 -0.24262513 192.69403912 -0.25532665 C200.28276128 -0.26156293 207.87148323 -0.26804575 215.46020508 -0.2746582 C216.21534438 -0.275312 216.97048369 -0.27596579 217.748506 -0.2766394 C242.19216907 -0.29791801 266.63577407 -0.33545345 291.07940201 -0.3814861 C316.21392685 -0.42873351 341.3484196 -0.45944675 366.48298811 -0.46957495 C370.0390923 -0.47101557 373.59519638 -0.47264375 377.15130043 -0.47438622 C377.85114184 -0.47472333 378.55098325 -0.47506045 379.27203198 -0.47540778 C390.50403491 -0.48129938 401.73593815 -0.50444353 412.96790054 -0.53416017 C424.28014543 -0.56371665 435.5922625 -0.57440737 446.90455522 -0.56750689 C453.02560152 -0.56431476 459.146357 -0.56909507 465.26735115 -0.59602737 C470.88463692 -0.62056133 476.50143942 -0.62145811 482.11874858 -0.60449447 C484.1379612 -0.60240142 486.15720539 -0.60857196 488.17635693 -0.62441591 C502.10885656 -0.72727728 514.59951328 1.18657813 528 5 C529.8199506 5.51414012 529.8199506 5.51414012 531.67666787 6.0386669 C540.96675553 8.79059527 550.21457742 12.99755964 557 20 C558.6396875 20.86625 558.6396875 20.86625 560.3125 21.75 C564.1193795 23.81983854 566.48694975 26.59135139 569.23046875 29.8984375 C573.99320586 35.69657479 573.99320586 35.69657479 580 40 C581.3923402 42.31369851 582.70771229 44.63166854 584 47 C584.72720761 48.26860599 585.45507882 49.53683181 586.18359375 50.8046875 C591.63948527 60.55050818 595.49595411 70.11376487 598 81 C598.17261781 81.69165615 598.34523563 82.38331229 598.52308428 83.09592772 C600.64116191 92.79711398 600.28416851 102.60650069 600.26742554 112.48059082 C600.27116516 114.57194352 600.27576792 116.66329482 600.28115618 118.75464392 C600.29336321 124.485125 600.29312841 130.21554761 600.29076743 135.94603872 C600.29035868 142.13305144 600.30140407 148.32004555 600.31088257 154.50704956 C600.32748151 166.62320021 600.33301759 178.73932611 600.33410732 190.85548514 C600.33502763 200.70775195 600.33915068 210.56001246 600.34550858 220.41227722 C600.34730377 223.25184424 600.3490834 226.09141127 600.35085833 228.9309783 C600.35152148 229.98998101 600.35152148 229.98998101 600.35219802 231.07037772 C600.36450162 250.92156439 600.37239965 270.77274887 600.37151146 290.62393951 C600.3714803 291.3719272 600.37144914 292.11991488 600.37141704 292.89056886 C600.37125084 296.68136552 600.37105276 300.47216217 600.37084763 304.26295882 C600.37078779 305.39218112 600.37078779 305.39218112 600.37072675 306.54421598 C600.37064587 308.06659136 600.37056228 309.58896674 600.37047596 311.11134212 C600.36925112 334.7842136 600.38425339 358.45702774 600.41162109 382.12988281 C600.44238394 408.75024516 600.45955101 435.37056983 600.45769465 461.99095106 C600.4575454 464.83303293 600.45744798 467.67511479 600.45738602 470.51719666 C600.45735105 471.56681851 600.45735105 471.56681851 600.45731538 472.63764485 C600.457254 483.86848326 600.46999236 495.09927164 600.48725055 506.33009521 C600.50425624 517.63088098 600.50580118 528.93157427 600.4930319 540.23237294 C600.48651705 546.34712359 600.48633151 552.46169412 600.5037384 558.57642746 C600.51953981 564.18510766 600.51653352 569.79346596 600.49917014 575.40213865 C600.49611574 577.42030559 600.49967302 579.43849698 600.51089029 581.45663506 C600.60423123 599.45655561 598.40788887 615.81811041 590.3125 632.0625 C589.81427734 633.10470703 589.31605469 634.14691406 588.80273438 635.22070312 C587.23217708 638.49607159 585.62443858 641.75112285 584 645 C583.34 645 582.68 645 582 645 C581.34 646.98 580.68 648.96 580 651 C579.34 651 578.68 651 578 651 C577.72414063 651.59167969 577.44828125 652.18335938 577.1640625 652.79296875 C571.97099468 662.63888592 561.27457207 670.32837507 552 676 C551.34 676 550.68 676 550 676 C549.67 676.99 549.34 677.98 549 679 C546.3046875 680.0390625 546.3046875 680.0390625 543 681 C541.03340174 681.77090652 539.07496712 682.56294473 537.125 683.375 C536.07183594 683.81199219 535.01867187 684.24898437 533.93359375 684.69921875 C531.56506767 685.74944403 529.41703246 686.88490664 527.1875 688.1875 C515.58925994 693.99713007 499.55471975 692.28426515 486.95332336 692.25396729 C484.84940537 692.25627536 482.74548818 692.25945421 480.64157265 692.26342177 C474.89520702 692.27173047 469.14890827 692.26766244 463.40254247 692.26144934 C457.19188011 692.25690981 450.98122896 692.26391598 444.77056885 692.26940918 C433.31983174 692.27777594 421.86912427 692.27706889 410.41838734 692.27158624 C399.84007667 692.26654642 389.26177376 692.26524579 378.68346214 692.26763153 C377.62914526 692.26786069 377.62914526 692.26786069 376.55352905 692.26809447 C373.70003748 692.26871719 370.84654592 692.26935399 367.99305436 692.270014 C341.25245035 692.27612526 314.51185983 692.2705954 287.77125791 692.2598202 C264.03068491 692.25032663 240.29013336 692.25118164 216.54956055 692.26074219 C189.85196405 692.27145773 163.15437944 692.27569489 136.45678109 692.26951766 C133.60955092 692.26887626 130.76232074 692.26825058 127.91509056 692.26763153 C127.21407355 692.26747338 126.51305653 692.26731522 125.79079658 692.26715227 C115.21886328 692.26488023 104.64693859 692.2675324 94.07500648 692.27259064 C82.05295867 692.27831416 70.03094171 692.27667652 58.00889484 692.26602915 C51.87680748 692.26077699 45.74476365 692.25870804 39.61267662 692.26532745 C33.99658322 692.27129816 28.38057359 692.26799321 22.76448777 692.25737235 C20.73580014 692.25514313 18.7071054 692.25626384 16.67842237 692.26112393 C-14.33106847 692.32969946 -40.40813714 683.53265902 -62.75 661.5 C-68.89121399 655.22039246 -73.6548081 648.95192232 -77.78125 641.21484375 C-78.95123554 639.08862002 -80.22631251 637.08714995 -81.5625 635.0625 C-89.62877587 622.19185919 -92.16497073 606.24932791 -92.13142776 591.2653513 C-92.1334804 590.40606247 -92.13553303 589.54677365 -92.13764787 588.66144577 C-92.143305 585.78035061 -92.1418622 582.89930346 -92.14044189 580.01820374 C-92.14302627 577.93229109 -92.14603964 575.84637894 -92.1494453 573.76046747 C-92.15751012 568.02657234 -92.15930458 562.29268974 -92.16004276 556.55878961 C-92.16189424 550.37517802 -92.1694421 544.19157292 -92.17617798 538.00796509 C-92.19046676 523.77987353 -92.19628763 509.55178611 -92.20086992 495.3236891 C-92.20320747 488.28882127 -92.20681033 481.25395425 -92.2105653 474.21908706 C-92.22340024 450.12615932 -92.23411896 426.03323203 -92.2375679 401.94030094 C-92.23778953 400.4283736 -92.23801132 398.91644627 -92.23823325 397.40451893 C-92.23845389 395.88898905 -92.23867437 394.37345917 -92.2388947 392.85792929 C-92.23933725 389.81763971 -92.23978436 386.77735013 -92.24023438 383.73706055 C-92.24034377 382.98324765 -92.24045316 382.22943475 -92.24056586 381.45277904 C-92.24419494 357.02096579 -92.26010963 332.58918224 -92.28342474 308.15738035 C-92.30804386 282.31172922 -92.32174173 256.46609504 -92.32293582 230.62043184 C-92.32310727 227.78086912 -92.32332269 224.94130641 -92.32357025 222.1017437 C-92.32362602 221.40259068 -92.32368179 220.70343765 -92.32373925 219.98309817 C-92.32488795 208.75145544 -92.33589459 197.51984328 -92.35045731 186.28821085 C-92.36485349 174.98924261 -92.3677901 163.69032436 -92.36001733 152.39134551 C-92.35611611 146.27499653 -92.35701475 140.15875002 -92.37107468 134.04241371 C-92.38384506 128.43563139 -92.38258847 122.82902817 -92.37048396 117.22224598 C-92.3685324 115.20132083 -92.37158022 113.18038285 -92.38032833 111.15947569 C-92.44071528 96.25772295 -91.46307142 82.04789793 -86 68 C-85.59007812 66.86046875 -85.18015625 65.7209375 -84.7578125 64.546875 C-80.82217556 53.88631932 -75.51312988 44.63542314 -68 36 C-67.34 36 -66.68 36 -66 36 C-65.79375 35.46375 -65.5875 34.9275 -65.375 34.375 C-63.46749574 31.08021991 -60.95180616 28.40636372 -58 26 C-57.34 26 -56.68 26 -56 26 C-56 25.34 -56 24.68 -56 24 C-54.09587525 22.3645192 -52.20199329 20.86205387 -50.1875 19.375 C-49.64029297 18.95476562 -49.09308594 18.53453125 -48.52929688 18.1015625 C-44.37541853 15 -44.37541853 15 -41 15 C-41 14.34 -41 13.68 -41 13 C-22.00636104 4.05330116 -22.00636104 4.05330116 -12 3 C-11.67 2.67 -11.34 2.34 -11 2 C-9.14712498 1.92773498 -7.29166122 1.9161878 -5.4375 1.9375 C-4.42558594 1.94652344 -3.41367187 1.95554688 -2.37109375 1.96484375 C-1.58863281 1.97644531 -0.80617188 1.98804688 0 2 C0 1.34 0 0.68 0 0 Z M-17 82 C-22.14733079 89.30092666 -23.15127142 95.57622194 -23.13142776 104.41719532 C-23.1334804 105.26644299 -23.13553303 106.11569065 -23.13764787 106.99067309 C-23.14332315 109.84957556 -23.14185996 112.70842992 -23.14044189 115.56733704 C-23.14302522 117.63247632 -23.14603828 119.6976151 -23.1494453 121.76275319 C-23.15752224 127.44820251 -23.15930525 133.13363921 -23.16004276 138.81909359 C-23.16189208 144.94669044 -23.16943874 151.07428072 -23.17617798 157.20187378 C-23.19047476 171.30352982 -23.19628816 185.40518171 -23.20086992 199.50684326 C-23.20320595 206.47481687 -23.20680858 213.44278966 -23.2105653 220.41076263 C-23.22339971 244.26151581 -23.23411961 268.11226854 -23.2375679 291.96302509 C-23.23778953 293.46008079 -23.23801132 294.95713648 -23.23823325 296.45419217 C-23.23845389 297.95486366 -23.23867438 299.45553514 -23.2388947 300.95620662 C-23.23933725 303.96681678 -23.23978437 306.97742695 -23.24023438 309.98803711 C-23.24034377 310.73449279 -23.24045316 311.48094848 -23.24056586 312.25002403 C-23.24419742 336.46011088 -23.26012176 360.67016779 -23.28342474 384.88024317 C-23.3080157 410.47520815 -23.32174037 436.07015603 -23.32293582 461.66513318 C-23.32310728 464.47425187 -23.3233227 467.28337056 -23.32357025 470.09248924 C-23.32362602 470.78417575 -23.32368179 471.47586225 -23.32373925 472.18850895 C-23.32489025 483.32327931 -23.33591625 494.45801896 -23.35045731 505.59277895 C-23.36481705 516.78206896 -23.36780952 527.97132012 -23.36001733 539.16062037 C-23.35610325 545.22330761 -23.35707748 551.28589145 -23.37107468 557.34856606 C-23.3837678 562.89703051 -23.38265648 568.44531338 -23.37048396 573.99377742 C-23.36851901 576.00250705 -23.37164202 578.01124934 -23.38032833 580.01996116 C-23.3913822 582.74862228 -23.38395962 585.4766382 -23.3719368 588.20528126 C-23.37953199 588.98661298 -23.38712718 589.7679447 -23.39495254 590.57295313 C-23.30159159 600.37636237 -19.07242659 607.83428741 -12.30078125 614.73046875 C-7.40972908 619.18187578 -2.78828701 622 4 622 C4 622.66 4 623.32 4 624 C51.31187356 624.01711406 98.62374737 624.03303523 145.93562317 624.04234314 C146.63557244 624.0424812 147.33552172 624.04261925 148.05668157 624.04276149 C163.26754157 624.04575423 178.4784016 624.04852443 193.68926169 624.05106533 C201.14839126 624.05231269 208.60752083 624.05360924 216.06665039 624.05493164 C216.80893341 624.0550624 217.55121644 624.05519316 218.31599289 624.05532788 C242.38644453 624.05959114 266.45689383 624.06710388 290.52734405 624.07629722 C315.25765153 624.08572545 339.9879577 624.09188443 364.71826694 624.09391499 C368.20923009 624.09420316 371.70019324 624.09452879 375.19115639 624.09487724 C375.87824506 624.09494467 376.56533374 624.09501209 377.27324328 624.09508156 C388.34471061 624.09626443 399.41617395 624.10090562 410.48763965 624.10683203 C421.61138666 624.11271293 432.73513061 624.11488847 443.85887935 624.11350138 C449.88872181 624.11285875 455.91855249 624.11386715 461.94839287 624.11920547 C467.46353784 624.12405266 472.97866304 624.12432989 478.4938089 624.12089889 C480.49388503 624.12047451 482.49396237 624.12175913 484.4940361 624.12488318 C487.2036911 624.12887105 489.91327387 624.12674833 492.62292767 624.12304783 C493.40715228 624.12567484 494.1913769 624.12830186 494.9993659 624.13100848 C498.79177171 624.11923108 502.31321215 623.91834165 506 623 C506 622.34 506 621.68 506 621 C506.804375 621.144375 507.60875 621.28875 508.4375 621.4375 C514.00284863 620.75403613 517.16395269 617.98044844 521 614 C527.07995326 606.04803031 531.15454414 599.15169218 531.13142776 588.96056843 C531.1334804 588.12784384 531.13553303 587.29511925 531.13764787 586.43716058 C531.14334166 583.62234315 531.14185768 580.80757428 531.14044189 577.99275208 C531.1430242 575.96391404 531.14603698 573.93507651 531.1494453 571.90623969 C531.15753497 566.31152756 531.15930597 560.71682825 531.16004276 555.12211096 C531.16189001 549.09521299 531.16943588 543.06832172 531.17617798 537.04142761 C531.1904875 523.16256762 531.19629079 509.28371075 531.20086992 495.40484523 C531.20320552 488.54432686 531.20680823 481.68380934 531.2105653 474.82329162 C531.22340453 451.33346042 531.23412134 427.84362969 531.2375679 404.35379505 C531.23778953 402.87867424 531.23801132 401.40355343 531.23823325 399.92843262 C531.23845389 398.44975317 531.23867438 396.97107372 531.2388947 395.49239427 C531.23933725 392.52593537 531.23978437 389.55947647 531.24023438 386.59301758 C531.24034377 385.85750609 531.24045316 385.1219946 531.24056586 384.36419489 C531.24419333 360.53617261 531.26009973 336.70818081 531.28342474 312.88017019 C531.30804578 287.6820067 531.32174189 262.48386063 531.32293582 237.28568476 C531.32310727 234.51683374 531.32332269 231.74798272 531.32357025 228.9791317 C531.3236539 227.9564946 531.3236539 227.9564946 531.32373925 226.91319816 C531.32488801 215.96028518 531.33589557 205.00740355 531.35045731 194.05450114 C531.36485634 183.03286026 531.36778866 172.01125412 531.36001733 160.98960558 C531.35611669 155.02315317 531.35701171 149.05680578 531.37107468 143.09036636 C531.38384918 137.62035425 531.38258487 132.15052569 531.37048396 126.6805137 C531.36853306 124.70926673 531.37157712 122.7380066 531.38032833 120.76677809 C532.01749656 99.88868298 532.01749656 99.88868298 524 81.4375 C515.36619285 73.07217457 507.65515064 68.84334113 495.72984982 68.86577892 C494.88434316 68.86342669 494.0388365 68.86107446 493.16770843 68.85865095 C490.31548242 68.85195842 487.46330193 68.85241925 484.61106873 68.85282898 C482.55305523 68.84953051 480.49504239 68.84580498 478.43703038 68.8416875 C472.76651665 68.83165741 467.09601351 68.82794908 461.42549217 68.82529819 C455.31554264 68.82139813 449.20560152 68.81181958 443.09565735 68.80308533 C429.03049415 68.78424721 414.96533289 68.77406356 400.90016063 68.76562465 C393.94937099 68.76141805 386.99858222 68.75619606 380.04779331 68.75094012 C356.25376227 68.73304947 332.45973099 68.71805371 308.66569424 68.71061993 C307.17185791 68.71014517 305.67802159 68.70966928 304.18418527 68.70919226 C303.44337757 68.70895589 302.70256987 68.70871951 301.93931345 68.70847597 C298.18602341 68.70727478 294.43273339 68.70605933 290.67944336 68.70483398 C289.93459191 68.70459383 289.18974046 68.70435368 288.42231775 68.70410626 C264.27500928 68.69621416 240.12774994 68.6727844 215.98046292 68.64027804 C190.44989674 68.60597231 164.9193593 68.58626808 139.38876969 68.58297569 C136.58547945 68.58255815 133.78218922 68.58207859 130.978899 68.58155251 C130.28865142 68.58142931 129.59840383 68.58130612 128.88723965 68.5811792 C117.78367919 68.57884805 106.68017582 68.56319285 95.5766357 68.54271066 C84.41293066 68.52244442 73.24929306 68.51731229 62.08556675 68.52648129 C56.03868539 68.53103148 49.99198927 68.52909774 43.94513321 68.50971985 C38.40752916 68.49212714 32.87024602 68.49305454 27.33263875 68.50861714 C25.33122606 68.5109991 23.32979137 68.50663926 21.32841235 68.49478849 C5.65771909 68.40775854 -6.00736971 69.62091184 -17 82 Z " fill="#232323" transform="translate(328,234)"/>
<path d="M0 0 C0 0.66 0 1.32 0 2 C2.97 2.495 2.97 2.495 6 3 C6 3.66 6 4.32 6 5 C7.98 5.495 7.98 5.495 10 6 C10 6.66 10 7.32 10 8 C10.59683594 8.268125 11.19367188 8.53625 11.80859375 8.8125 C16.92272585 11.5837944 20.01121779 16.2014821 21.875 21.625 C24.54380821 32.39787215 23.63439065 40.76909925 18.28125 50.54296875 C14.65872063 56.31514889 10.0420652 61.43454793 5 66 C4.34 66 3.68 66 3 66 C2.79375 66.53625 2.5875 67.0725 2.375 67.625 C0.46749574 70.91978009 -2.04819384 73.59363628 -5 76 C-5.66 76 -6.32 76 -7 76 C-7.33 76.99 -7.66 77.98 -8 79 C-9.4375 80.6875 -9.4375 80.6875 -11 82 C-11.66 82 -12.32 82 -13 82 C-13.36158203 82.85271484 -13.36158203 82.85271484 -13.73046875 83.72265625 C-15.24968088 86.44788908 -17.07418981 88.26690339 -19.3125 90.4375 C-20.11816406 91.22511719 -20.92382812 92.01273438 -21.75390625 92.82421875 C-22.49511719 93.54222656 -23.23632812 94.26023437 -24 95 C-24.9075 95.9075 -25.815 96.815 -26.75 97.75 C-27.4925 98.4925 -28.235 99.235 -29 100 C-29.886875 100.928125 -30.77375 101.85625 -31.6875 102.8125 C-34 105 -34 105 -36 105 C-36.99 106.98 -36.99 106.98 -38 109 C-38.66 109 -39.32 109 -40 109 C-40 109.66 -40 110.32 -40 111 C-40.66 111 -41.32 111 -42 111 C-42.36158203 111.85271484 -42.36158203 111.85271484 -42.73046875 112.72265625 C-44.24968088 115.44788908 -46.07418981 117.26690339 -48.3125 119.4375 C-49.07175781 120.17871094 -49.83101562 120.91992188 -50.61328125 121.68359375 C-51.40089844 122.44800781 -52.18851563 123.21242188 -53 124 C-55.92171187 126.90197057 -58.81562959 129.82979432 -61.69921875 132.76953125 C-63.02855569 134.11727642 -64.35798452 135.46493096 -65.6875 136.8125 C-66.36361328 137.50537109 -67.03972656 138.19824219 -67.73632812 138.91210938 C-68.38408203 139.56630859 -69.03183594 140.22050781 -69.69921875 140.89453125 C-70.28533936 141.49112549 -70.87145996 142.08771973 -71.4753418 142.70239258 C-73 144 -73 144 -75 144 C-75.66 145.32 -76.32 146.64 -77 148 C-77.66 148 -78.32 148 -79 148 C-79.2475 148.61875 -79.495 149.2375 -79.75 149.875 C-81.23740369 152.40358627 -82.43678009 152.71839004 -85 154 C-85.2784375 154.58265625 -85.556875 155.1653125 -85.84375 155.765625 C-87.31557214 158.60982183 -89.23180716 160.49653568 -91.5 162.75 C-92.69109375 163.94882812 -92.69109375 163.94882812 -93.90625 165.171875 C-96 167 -96 167 -98 167 C-98.20625 167.53625 -98.4125 168.0725 -98.625 168.625 C-100.53250426 171.91978009 -103.04819384 174.59363628 -106 177 C-106.66 177 -107.32 177 -108 177 C-108.33 177.99 -108.66 178.98 -109 180 C-110.4375 181.6875 -110.4375 181.6875 -112 183 C-112.66 183 -113.32 183 -114 183 C-114.2371875 183.56203125 -114.474375 184.1240625 -114.71875 184.703125 C-116.28947697 187.51894042 -118.21471464 189.47955416 -120.5 191.75 C-121.69109375 192.94882812 -121.69109375 192.94882812 -122.90625 194.171875 C-125 196 -125 196 -127 196 C-127.20625 196.53625 -127.4125 197.0725 -127.625 197.625 C-129.53250426 200.91978009 -132.04819384 203.59363628 -135 206 C-135.66 206 -136.32 206 -137 206 C-137.33 206.99 -137.66 207.98 -138 209 C-139.4375 210.6875 -139.4375 210.6875 -141 212 C-141.66 212 -142.32 212 -143 212 C-143.24105469 212.56847656 -143.48210937 213.13695312 -143.73046875 213.72265625 C-145.24968088 216.44788908 -147.07418981 218.26690339 -149.3125 220.4375 C-150.11816406 221.22511719 -150.92382812 222.01273438 -151.75390625 222.82421875 C-152.49511719 223.54222656 -153.23632812 224.26023437 -154 225 C-154.9075 225.9075 -155.815 226.815 -156.75 227.75 C-157.86375 228.86375 -157.86375 228.86375 -159 230 C-160.3303125 231.3921875 -160.3303125 231.3921875 -161.6875 232.8125 C-164 235 -164 235 -166 235 C-166.20625 235.53625 -166.4125 236.0725 -166.625 236.625 C-168.53250426 239.91978009 -171.04819384 242.59363628 -174 245 C-174.66 245 -175.32 245 -176 245 C-176.66 246.32 -177.32 247.64 -178 249 C-178.66 249 -179.32 249 -180 249 C-180.66 250.32 -181.32 251.64 -182 253 C-182.66 253 -183.32 253 -184 253 C-184 253.99 -184 254.98 -184 256 C-185.64453125 257.7890625 -185.64453125 257.7890625 -187.8125 259.625 C-188.87404297 260.54152344 -188.87404297 260.54152344 -189.95703125 261.4765625 C-192 263 -192 263 -195 264 C-195 264.66 -195 265.32 -195 266 C-203.27718725 273.46707956 -211.64888267 275.4100054 -222.52734375 275.203125 C-226.45216472 274.88070685 -230.20483838 274.02671039 -234 273 C-234 272.34 -234 271.68 -234 271 C-235.051875 270.6596875 -235.051875 270.6596875 -236.125 270.3125 C-242.07030943 267.598337 -247.03520456 262.86399806 -250 257 C-250 255.68 -250 254.36 -250 253 C-250.66 253 -251.32 253 -252 253 C-254.77025213 247.45949573 -253.61972332 237.47675284 -252.5390625 231.4140625 C-248.84206798 220.75801948 -240.26734465 211.77328261 -231.8671875 204.609375 C-229.44776019 202.52401087 -227.23105293 200.28546886 -225 198 C-223.50137551 196.49862575 -222.00123609 194.99876289 -220.5 193.5 C-219.7678125 192.7678125 -219.035625 192.035625 -218.28125 191.28125 C-212.1875 185.1875 -206.09375 179.09375 -200 173 C-199.23365234 172.23292725 -198.46730469 171.46585449 -197.67773438 170.67553711 C-195.42303964 168.42269251 -193.16420876 166.17412581 -190.90258789 163.92823792 C-188.81435237 161.85355191 -186.72892718 159.77604961 -184.64355469 157.69848633 C-183.54874637 156.60871946 -182.45304396 155.51985006 -181.35644531 154.43188477 C-179.75604928 152.84371465 -178.15899111 151.25225056 -176.5625 149.66015625 C-176.079021 149.18183853 -175.59554199 148.70352081 -175.09741211 148.21070862 C-171.84344148 144.9572677 -168.92245596 141.54547953 -166 138 C-164.69988675 136.77621915 -163.36937702 135.58324892 -162 134.4375 C-158.85055126 131.74551309 -155.89656966 128.9672177 -153 126 C-151.50137551 124.49862575 -150.00123609 122.99876289 -148.5 121.5 C-147.72140625 120.72140625 -146.9428125 119.9428125 -146.140625 119.140625 C-139 112 -139 112 -136.625 109.6875 C-134.53979113 107.5526433 -132.61661169 105.39531511 -130.6875 103.125 C-127.65512972 99.61035732 -124.37275446 96.64321354 -120.8359375 93.6484375 C-118.77897599 91.88108802 -118.77897599 91.88108802 -116.5 89 C-113.90388994 85.88466793 -111.1255716 83.41609498 -108.05078125 80.79296875 C-104.875458 78.016829 -101.95067857 75.01035522 -99 72 C-97.33414298 70.33252408 -95.66733531 68.66599776 -94 67 C-93.11183594 66.11183594 -92.22367188 65.22367187 -91.30859375 64.30859375 C-70 43 -70 43 -67.43823242 40.44262695 C-65.09021717 38.09037977 -62.75623276 35.72510418 -60.42578125 33.35546875 C-58.72148124 31.63268678 -57.01705072 29.91003392 -55.3125 28.1875 C-54.44560547 27.30384766 -53.57871094 26.42019531 -52.68554688 25.50976562 C-51.44321289 24.25776367 -51.44321289 24.25776367 -50.17578125 22.98046875 C-49.04523315 21.83421021 -49.04523315 21.83421021 -47.8918457 20.66479492 C-46 19 -46 19 -44 19 C-43.814375 18.29875 -43.62875 17.5975 -43.4375 16.875 C-41.47932486 12.95864972 -38.59323769 10.4661136 -35 8 C-34.34 8 -33.68 8 -33 8 C-33 7.34 -33 6.68 -33 6 C-21.8704433 0.13290975 -12.55354187 -2.64285092 0 0 Z " fill="#232323" transform="translate(697,443)"/>
<path d="M0 0 C4.12259974 2.79658062 6.1067241 5.46482161 8.25 9.9375 C9.00023437 11.46697266 9.00023437 11.46697266 9.765625 13.02734375 C17.33186575 31.24857544 9.18700196 58.8806383 2.08886719 76.2265625 C-3.45547729 88.52429854 -12.27224442 100.8549683 -25.078125 106.2265625 C-32.93694386 108.30683808 -42.95275229 108.90168884 -50.1875 104.75 C-56.64674899 99.48226296 -60.0524042 91.11636399 -61 83 C-62.35981033 59.88322441 -57.14415793 30.08647361 -41.78125 11.9609375 C-41.1934375 11.31382812 -40.605625 10.66671875 -40 10 C-39.14921875 9.02933594 -39.14921875 9.02933594 -38.28125 8.0390625 C-28.44583178 -2.55636531 -13.26769964 -6.48858303 0 0 Z " fill="#FCFCFC" transform="translate(432,980)"/>
<path d="M0 0 C4.31236921 -0.08789715 8.6245045 -0.1406923 12.9375 -0.1875 C14.14986328 -0.21263672 15.36222656 -0.23777344 16.61132812 -0.26367188 C24.95202759 -0.33148244 31.73697728 0.3124422 38.875 4.8125 C44.06267948 10.15275829 44.50281526 15.50348354 44.41015625 22.68041992 C44.0278304 34.35861618 40.17828667 44.51676026 32 53 C28.80174891 55.35085123 25.53284994 57.21157256 22 59 C23.2812919 66.3632049 24.75778596 73.65529758 26.4375 80.9375 C26.65559326 81.89245361 26.87368652 82.84740723 27.09838867 83.83129883 C28.48358645 89.86390951 29.93389768 95.87211115 31.51953125 101.85546875 C32 104 32 104 32 107 C27.71 107 23.42 107 19 107 C16 92 13 77 10 62 C6.04 62 2.08 62 -2 62 C-2.11472656 63.42441406 -2.22945313 64.84882812 -2.34765625 66.31640625 C-2.91546086 71.98547124 -4.10237443 77.40626548 -5.4375 82.9375 C-7.00778057 89.53081455 -8.43132302 96.10149231 -9.55493164 102.78735352 C-10 105 -10 105 -11 107 C-14.63 107 -18.26 107 -22 107 C-20.77158295 97.95438351 -18.9924371 89.13553265 -17.01757812 80.22851562 C-15.52606176 73.48036566 -14.13631751 66.72032899 -12.8125 59.9375 C-8.87888936 39.88979986 -4.37404846 19.95508396 0 0 Z " fill="#222222" transform="translate(321,979)"/>
<path d="M0 0 C4.47894321 -0.11712011 8.95748714 -0.1875608 13.4375 -0.25 C14.69755859 -0.28351562 15.95761719 -0.31703125 17.25585938 -0.3515625 C25.77861185 -0.44057297 32.48458405 0.19625287 39.15625 5.81640625 C39.5996875 6.39261719 40.043125 6.96882812 40.5 7.5625 C40.9640625 8.14128906 41.428125 8.72007812 41.90625 9.31640625 C46.26183693 16.02089899 44.36013121 26.31657849 42.8125 33.6875 C40.11774489 44.16288607 35.62660692 53.23520354 26.3125 59.1875 C19.08882766 63.25747468 12.43451397 65.00483111 4.17578125 65.57421875 C3.01602783 65.65631592 1.85627441 65.73841309 0.66137695 65.82299805 C-0.21687744 65.88140869 -1.09513184 65.93981934 -2 66 C-2.30236572 67.48995483 -2.30236572 67.48995483 -2.61083984 69.01000977 C-3.36473518 72.72119087 -4.12226766 76.43162198 -4.88085938 80.1418457 C-5.20768729 81.74288263 -5.5335495 83.34411701 -5.85839844 84.94555664 C-6.32749192 87.25720905 -6.80013901 89.5681116 -7.2734375 91.87890625 C-7.41623138 92.58648575 -7.55902527 93.29406525 -7.70614624 94.02308655 C-8.61086738 98.41877125 -9.71774571 102.69879836 -11 107 C-14.63 107 -18.26 107 -22 107 C-21.28088218 98.2007944 -19.35176632 89.67580159 -17.5 81.0625 C-17.14515687 79.39688462 -16.7906722 77.73119284 -16.43652344 76.06542969 C-15.49228435 71.62983741 -14.54248686 67.19545258 -13.59155273 62.7612915 C-12.79463855 59.04139935 -12.00131358 55.32074547 -11.20800781 51.6000824 C-10.22340781 46.98308841 -9.23699205 42.36648316 -8.25 37.75 C-8.06590576 36.88883575 -7.88181152 36.02767151 -7.69213867 35.14041138 C-5.18330678 23.41442859 -2.6180799 11.70207719 0 0 Z " fill="#232323" transform="translate(256,979)"/>
<path d="M0 0 C4.12259974 2.79658062 6.1067241 5.46482161 8.25 9.9375 C9.00023437 11.46697266 9.00023437 11.46697266 9.765625 13.02734375 C17.33186575 31.24857544 9.18700196 58.8806383 2.08886719 76.2265625 C-3.45547729 88.52429854 -12.27224442 100.8549683 -25.078125 106.2265625 C-32.93694386 108.30683808 -42.95275229 108.90168884 -50.1875 104.75 C-56.64674899 99.48226296 -60.0524042 91.11636399 -61 83 C-62.35981033 59.88322441 -57.14415793 30.08647361 -41.78125 11.9609375 C-41.1934375 11.31382812 -40.605625 10.66671875 -40 10 C-39.14921875 9.02933594 -39.14921875 9.02933594 -38.28125 8.0390625 C-28.44583178 -2.55636531 -13.26769964 -6.48858303 0 0 Z M-33.1875 17.5625 C-40.51966242 28.31768852 -44.00648654 40.49363306 -47 53 C-47.37318359 54.55847656 -47.37318359 54.55847656 -47.75390625 56.1484375 C-50.00634832 67.39489651 -51.74493822 82.13550128 -45.40625 92.2421875 C-42.77393658 95.53257927 -40.92275763 96.71391495 -36.7421875 97.3359375 C-28.9154086 97.83857468 -24.69777554 95.23466299 -18.97265625 90.2265625 C-3.65498444 74.87949017 0.2607838 47.67754797 0.2487793 26.88574219 C0.16126939 21.49916117 -0.37951157 17.69880683 -3 13 C-7.9021727 8.33695768 -11.42222341 7.51961716 -18.046875 7.59765625 C-24.53100881 8.4810766 -29.14479856 12.62956637 -33.1875 17.5625 Z " fill="#232323" transform="translate(432,980)"/>
<path d="M0 0 C15.18445897 -0.75816993 15.18445897 -0.75816993 21 4 C24.68161467 9.61602238 23.64562112 17.54569136 22.46484375 23.86328125 C20.05069893 32.55684102 15.76951172 38.16248074 8.296875 43.1328125 C4.97825913 44.38575931 1.74197139 44.21081404 -1.75 44.125 C-2.44738281 44.11597656 -3.14476562 44.10695313 -3.86328125 44.09765625 C-5.57566958 44.07419888 -7.28788004 44.03833104 -9 44 C-6.08629105 29.31454716 -3.1239179 14.64227441 0 0 Z " fill="#FCFCFC" transform="translate(265,989)"/>
<path d="M0 0 C5.82167473 0.06056359 11.31334332 0.61372251 15.62890625 4.94921875 C18.79418787 10.51444525 17.59878483 18.3808771 16.2109375 24.40234375 C13.85409162 31.38665533 10.91276759 36.67342253 4.5 40.625 C-1.3065892 43.33250402 -7.81481529 42.56589417 -14.0625 42.25 C-13.42074466 34.33501742 -11.76932076 26.68966623 -10.05126953 18.95410156 C-9.55774649 16.72856409 -9.07334867 14.50117056 -8.58984375 12.2734375 C-8.27917996 10.85925756 -7.96800125 9.44519061 -7.65625 8.03125 C-7.23375977 6.1140918 -7.23375977 6.1140918 -6.80273438 4.15820312 C-5.63510694 -0.42912471 -4.49053695 0.07412166 0 0 Z " fill="#FAFAFA" transform="translate(336.0625,988.75)"/>
<path d="M0 0 C-1.59092052 4.13639336 -4.60474918 7.23213248 -8 10 C-8.66 10 -9.32 10 -10 10 C-8.50006099 6.10015857 -4.53875449 0 0 0 Z " fill="#C9C9C9" transform="translate(320,309)"/>
<path d="M0 0 C-4.455 1.485 -4.455 1.485 -9 3 C-9 3.66 -9 4.32 -9 5 C-11.31 5.33 -13.62 5.66 -16 6 C-14.55625108 3.11250216 -12.58631039 2.6524799 -9.6875 1.3125 C-8.72199219 0.85488281 -7.75648438 0.39726562 -6.76171875 -0.07421875 C-4 -1 -4 -1 0 0 Z " fill="#808080" transform="translate(308,240)"/>
<path d="M0 0 C0 3.08401374 -0.34209098 4.03663956 -1.8125 6.625 C-2.14894531 7.23601563 -2.48539062 7.84703125 -2.83203125 8.4765625 C-4 10 -4 10 -7 11 C-5.5140084 6.40693504 -3.14985318 3.56430755 0 0 Z " fill="#575757" transform="translate(455,658)"/>
<path d="M0 0 C0.66 0.33 1.32 0.66 2 1 C0.68 1.33 -0.64 1.66 -2 2 C-2 2.66 -2 3.32 -2 4 C-2.99 4 -3.98 4 -5 4 C-5.33 4.99 -5.66 5.98 -6 7 C-7.32 6.67 -8.64 6.34 -10 6 C-6.375 3 -6.375 3 -3 3 C-3 2.34 -3 1.68 -3 1 C-2.01 0.67 -1.02 0.34 0 0 Z " fill="#727272" transform="translate(290,246)"/>
<path d="M0 0 C-1.49097658 3.7952131 -3.75700849 5.61042731 -7 8 C-7.66 7.67 -8.32 7.34 -9 7 C-7.88121617 5.82737096 -6.75476949 4.66204862 -5.625 3.5 C-4.68527344 2.52546875 -4.68527344 2.52546875 -3.7265625 1.53125 C-2 0 -2 0 0 0 Z " fill="#494949" transform="translate(552,563)"/>
<path d="M0 0 C0 3 0 3 -1.3125 4.60546875 C-1.869375 5.12753906 -2.42625 5.64960937 -3 6.1875 C-3.556875 6.71730469 -4.11375 7.24710938 -4.6875 7.79296875 C-5.120625 8.19128906 -5.55375 8.58960938 -6 9 C-6.66 8.67 -7.32 8.34 -8 8 C-3.375 2.25 -3.375 2.25 0 0 Z " fill="#D0D0D0" transform="translate(645,565)"/>
<path d="M0 0 C0.33 0 0.66 0 1 0 C1.125 5.75 1.125 5.75 0 8 C-0.99 7.67 -1.98 7.34 -3 7 C-2.01 4.69 -1.02 2.38 0 0 Z " fill="#494949" transform="translate(249,286)"/>
<path d="M0 0 C0.66 0 1.32 0 2 0 C2 0.66 2 1.32 2 2 C1.34 2 0.68 2 0 2 C0 1.34 0 0.68 0 0 Z " fill="#000000" transform="translate(223,1134)"/>
<path d="M0 0 C0.66 0 1.32 0 2 0 C2 0.66 2 1.32 2 2 C1.34 2 0.68 2 0 2 C0 1.34 0 0.68 0 0 Z " fill="#000000" transform="translate(1111,972)"/>
<path d="M0 0 C0.66 0 1.32 0 2 0 C1.67 0.66 1.34 1.32 1 2 C0.67 1.34 0.34 0.68 0 0 Z " fill="#000000" transform="translate(206,1125)"/>
<path d="M0 0 C0.66 0 1.32 0 2 0 C1.67 0.66 1.34 1.32 1 2 C0.67 1.34 0.34 0.68 0 0 Z " fill="#000000" transform="translate(200,1121)"/>
<path d="M0 0 C0.66 0 1.32 0 2 0 C1.67 0.66 1.34 1.32 1 2 C0.67 1.34 0.34 0.68 0 0 Z " fill="#000000" transform="translate(178,1101)"/>
<path d="M0 0 C0.66 0.66 1.32 1.32 2 2 C1.34 2 0.68 2 0 2 C0 1.34 0 0.68 0 0 Z " fill="#000000" transform="translate(167,1086)"/>
<path d="M0 0 C0.66 0 1.32 0 2 0 C1.67 0.66 1.34 1.32 1 2 C0.67 1.34 0.34 0.68 0 0 Z " fill="#000000" transform="translate(1118,964)"/>
<path d="M0 0 C0.66 0.66 1.32 1.32 2 2 C1.34 2 0.68 2 0 2 C0 1.34 0 0.68 0 0 Z " fill="#000000" transform="translate(1121,960)"/>
<path d="M0 0 C0.66 0 1.32 0 2 0 C1.67 0.66 1.34 1.32 1 2 C0.67 1.34 0.34 0.68 0 0 Z " fill="#000000" transform="translate(1130,945)"/>
<path d="M0 0 C0.66 0 1.32 0 2 0 C1.67 0.66 1.34 1.32 1 2 C0.67 1.34 0.34 0.68 0 0 Z " fill="#000000" transform="translate(23,232)"/>
<path d="M0 0 C0.66 0.66 1.32 1.32 2 2 C1.34 2 0.68 2 0 2 C0 1.34 0 0.68 0 0 Z " fill="#000000" transform="translate(37,204)"/>
<path d="M0 0 C0.33 0.66 0.66 1.32 1 2 C0.34 1.67 -0.32 1.34 -1 1 C-0.67 0.67 -0.34 0.34 0 0 Z " fill="#000000" transform="translate(56,182)"/>
<path d="M0 0 C0.66 0.66 1.32 1.32 2 2 C1.34 2 0.68 2 0 2 C0 1.34 0 0.68 0 0 Z " fill="#000000" transform="translate(968,45)"/>
<path d="M0 0 C0.66 0 1.32 0 2 0 C1.67 0.66 1.34 1.32 1 2 C0.67 1.34 0.34 0.68 0 0 Z " fill="#000000" transform="translate(962,41)"/>
<path d="M0 0 C0.66 0 1.32 0 2 0 C1.67 0.66 1.34 1.32 1 2 C0.67 1.34 0.34 0.68 0 0 Z " fill="#000000" transform="translate(943,29)"/>
<path d="M0 0 C0.66 0.66 1.32 1.32 2 2 C1.34 2 0.68 2 0 2 C0 1.34 0 0.68 0 0 Z " fill="#000000" transform="translate(932,24)"/>
<path d="M0 0 C0.66 0 1.32 0 2 0 C1.67 0.66 1.34 1.32 1 2 C0.67 1.34 0.34 0.68 0 0 Z " fill="#000000" transform="translate(914,19)"/>
<path d="" fill="#000000" transform="translate(0,0)"/>
<path d="M0 0 C2 1 2 1 2 1 Z " fill="#000000" transform="translate(232,1138)"/>
<path d="" fill="#000000" transform="translate(0,0)"/>
<path d="" fill="#000000" transform="translate(0,0)"/>
<path d="M0 0 C2 1 2 1 2 1 Z " fill="#000000" transform="translate(208,1127)"/>
<path d="M0 0 C2 1 2 1 2 1 Z " fill="#000000" transform="translate(204,1124)"/>
<path d="" fill="#000000" transform="translate(0,0)"/>
<path d="" fill="#000000" transform="translate(0,0)"/>
<path d="" fill="#000000" transform="translate(0,0)"/>
<path d="" fill="#000000" transform="translate(0,0)"/>
<path d="" fill="#000000" transform="translate(0,0)"/>
<path d="" fill="#000000" transform="translate(0,0)"/>
<path d="" fill="#000000" transform="translate(0,0)"/>
<path d="" fill="#000000" transform="translate(0,0)"/>
<path d="" fill="#000000" transform="translate(0,0)"/>
<path d="M0 0 C2 1 2 1 2 1 Z " fill="#000000" transform="translate(1086,994)"/>
<path d="M0 0 C2 1 2 1 2 1 Z " fill="#000000" transform="translate(1098,985)"/>
<path d="M0 0 C2 1 2 1 2 1 Z " fill="#000000" transform="translate(1101,983)"/>
<path d="" fill="#000000" transform="translate(0,0)"/>
<path d="" fill="#000000" transform="translate(0,0)"/>
<path d="" fill="#000000" transform="translate(0,0)"/>
<path d="" fill="#000000" transform="translate(0,0)"/>
<path d="" fill="#000000" transform="translate(0,0)"/>
<path d="" fill="#000000" transform="translate(0,0)"/>
<path d="" fill="#000000" transform="translate(0,0)"/>
<path d="" fill="#000000" transform="translate(0,0)"/>
<path d="M0 0 C2 1 2 1 2 1 Z " fill="#000000" transform="translate(1125,955)"/>
<path d="" fill="#000000" transform="translate(0,0)"/>
<path d="" fill="#000000" transform="translate(0,0)"/>
<path d="M0 0 C2 1 2 1 2 1 Z " fill="#000000" transform="translate(1134,938)"/>
<path d="" fill="#000000" transform="translate(0,0)"/>
<path d="" fill="#000000" transform="translate(0,0)"/>
<path d="" fill="#000000" transform="translate(0,0)"/>
<path d="" fill="#000000" transform="translate(0,0)"/>
<path d="M0 0 C2 1 2 1 2 1 Z " fill="#000000" transform="translate(19,247)"/>
<path d="" fill="#000000" transform="translate(0,0)"/>
<path d="" fill="#000000" transform="translate(0,0)"/>
<path d="M0 0 C2 1 2 1 2 1 Z " fill="#000000" transform="translate(29,218)"/>
<path d="" fill="#000000" transform="translate(0,0)"/>
<path d="" fill="#000000" transform="translate(0,0)"/>
<path d="" fill="#000000" transform="translate(0,0)"/>
<path d="" fill="#000000" transform="translate(0,0)"/>
<path d="" fill="#000000" transform="translate(0,0)"/>
<path d="" fill="#000000" transform="translate(0,0)"/>
<path d="M0 0 C2 1 2 1 2 1 Z " fill="#000000" transform="translate(41,199)"/>
<path d="" fill="#000000" transform="translate(0,0)"/>
<path d="M0 0 C2 1 2 1 2 1 Z " fill="#000000" transform="translate(45,193)"/>
<path d="" fill="#000000" transform="translate(0,0)"/>
<path d="" fill="#000000" transform="translate(0,0)"/>
<path d="" fill="#000000" transform="translate(0,0)"/>
<path d="" fill="#000000" transform="translate(0,0)"/>
<path d="" fill="#000000" transform="translate(0,0)"/>
<path d="" fill="#000000" transform="translate(0,0)"/>
<path d="M0 0 C2 1 2 1 2 1 Z " fill="#000000" transform="translate(974,51)"/>
<path d="M0 0 C2 1 2 1 2 1 Z " fill="#000000" transform="translate(972,50)"/>
<path d="M0 0 C2 1 2 1 2 1 Z " fill="#000000" transform="translate(966,44)"/>
<path d="M0 0 C2 1 2 1 2 1 Z " fill="#000000" transform="translate(964,43)"/>
<path d="" fill="#000000" transform="translate(0,0)"/>
<path d="" fill="#000000" transform="translate(0,0)"/>
<path d="" fill="#000000" transform="translate(0,0)"/>
<path d="" fill="#000000" transform="translate(0,0)"/>
<path d="M0 0 C2 1 2 1 2 1 Z " fill="#000000" transform="translate(945,31)"/>
<path d="" fill="#000000" transform="translate(0,0)"/>
<path d="" fill="#000000" transform="translate(0,0)"/>
<path d="" fill="#000000" transform="translate(0,0)"/>
<path d="M0 0 C2 1 2 1 2 1 Z " fill="#000000" transform="translate(893,16)"/>
<path d="" fill="#000000" transform="translate(0,0)"/>
<path d="" fill="#000000" transform="translate(0,0)"/>
<path d="" fill="#000000" transform="translate(0,0)"/>
<path d="" fill="#000000" transform="translate(0,0)"/>
<path d="" fill="#000000" transform="translate(0,0)"/>
<path d="" fill="#000000" transform="translate(0,0)"/>
<path d="" fill="#000000" transform="translate(0,0)"/>
<path d="" fill="#000000" transform="translate(0,0)"/>
<path d="" fill="#000000" transform="translate(0,0)"/>
<path d="" fill="#000000" transform="translate(0,0)"/>
<path d="" fill="#000000" transform="translate(0,0)"/>
<path d="" fill="#000000" transform="translate(0,0)"/>
<path d="" fill="#000000" transform="translate(0,0)"/>
<path d="" fill="#000000" transform="translate(0,0)"/>
<path d="" fill="#000000" transform="translate(0,0)"/>
<path d="" fill="#000000" transform="translate(0,0)"/>
<path d="" fill="#000000" transform="translate(0,0)"/>
<path d="" fill="#000000" transform="translate(0,0)"/>
<path d="" fill="#000000" transform="translate(0,0)"/>
<path d="" fill="#000000" transform="translate(0,0)"/>
<path d="" fill="#000000" transform="translate(0,0)"/>
<path d="" fill="#000000" transform="translate(0,0)"/>
<path d="" fill="#000000" transform="translate(0,0)"/>
<path d="" fill="#000000" transform="translate(0,0)"/>
<path d="" fill="#000000" transform="translate(0,0)"/>
<path d="" fill="#000000" transform="translate(0,0)"/>
<path d="" fill="#000000" transform="translate(0,0)"/>
<path d="" fill="#000000" transform="translate(0,0)"/>
<path d="" fill="#000000" transform="translate(0,0)"/>
<path d="" fill="#000000" transform="translate(0,0)"/>
<path d="" fill="#000000" transform="translate(0,0)"/>
<path d="" fill="#000000" transform="translate(0,0)"/>
<path d="" fill="#000000" transform="translate(0,0)"/>
<path d="" fill="#000000" transform="translate(0,0)"/>
<path d="" fill="#000000" transform="translate(0,0)"/>
<path d="" fill="#000000" transform="translate(0,0)"/>
<path d="" fill="#000000" transform="translate(0,0)"/>
<path d="" fill="#000000" transform="translate(0,0)"/>
<path d="" fill="#000000" transform="translate(0,0)"/>
<path d="" fill="#000000" transform="translate(0,0)"/>
<path d="" fill="#000000" transform="translate(0,0)"/>
<path d="" fill="#000000" transform="translate(0,0)"/>
<path d="" fill="#000000" transform="translate(0,0)"/>
<path d="" fill="#000000" transform="translate(0,0)"/>
<path d="" fill="#000000" transform="translate(0,0)"/>
<path d="" fill="#000000" transform="translate(0,0)"/>
<path d="" fill="#000000" transform="translate(0,0)"/>
<path d="" fill="#000000" transform="translate(0,0)"/>
<path d="" fill="#000000" transform="translate(0,0)"/>
<path d="" fill="#000000" transform="translate(0,0)"/>
<path d="" fill="#000000" transform="translate(0,0)"/>
<path d="" fill="#000000" transform="translate(0,0)"/>
<path d="" fill="#000000" transform="translate(0,0)"/>
<path d="" fill="#000000" transform="translate(0,0)"/>
<path d="" fill="#000000" transform="translate(0,0)"/>
<path d="" fill="#000000" transform="translate(0,0)"/>
<path d="" fill="#000000" transform="translate(0,0)"/>
<path d="" fill="#000000" transform="translate(0,0)"/>
<path d="" fill="#000000" transform="translate(0,0)"/>
<path d="" fill="#000000" transform="translate(0,0)"/>
<path d="" fill="#000000" transform="translate(0,0)"/>
<path d="" fill="#000000" transform="translate(0,0)"/>
<path d="" fill="#000000" transform="translate(0,0)"/>
<path d="" fill="#000000" transform="translate(0,0)"/>
<path d="" fill="#000000" transform="translate(0,0)"/>
<path d="" fill="#000000" transform="translate(0,0)"/>
<path d="" fill="#000000" transform="translate(0,0)"/>
<path d="" fill="#000000" transform="translate(0,0)"/>
<path d="" fill="#000000" transform="translate(0,0)"/>
<path d="" fill="#000000" transform="translate(0,0)"/>
<path d="" fill="#000000" transform="translate(0,0)"/>
</svg>
